<?xml version="1.0" standalone="no"?>
<!DOCTYPE svg PUBLIC "-//W3C//DTD SVG 20010904//EN"
 "http://www.w3.org/TR/2001/REC-SVG-20010904/DTD/svg10.dtd">
<svg version="1.0" xmlns="http://www.w3.org/2000/svg"
 width="640.000000pt" height="640.000000pt" viewBox="0 0 640.000000 640.000000"
 preserveAspectRatio="xMidYMid meet">

<g transform="translate(0.000000,640.000000) scale(0.100000,-0.100000)"
fill="#000000" stroke="none">
<path d="M408 6393 c7 -3 16 -2 19 1 4 3 -2 6 -13 5 -11 0 -14 -3 -6 -6z"/>
<path d="M766 6353 c-9 -26 -16 -52 -16 -58 0 -9 90 -41 94 -33 6 9 36 117 36
126 0 8 -18 12 -49 12 l-49 0 -16 -47z"/>
<path d="M984 6383 c3 -10 8 -50 12 -89 3 -40 9 -76 13 -82 6 -10 93 -43 99
-37 2 2 -4 51 -12 109 -9 59 -16 109 -16 111 0 3 -23 5 -51 5 -43 0 -50 -2
-45 -17z"/>
<path d="M1241 6363 c-6 -21 -24 -77 -40 -125 l-29 -86 145 -47 c83 -27 149
-43 154 -38 5 5 11 23 15 40 l6 31 -88 27 c-49 15 -93 31 -97 35 -12 10 22
120 36 120 7 0 48 -11 91 -25 44 -14 80 -24 81 -23 10 14 24 73 18 79 -21 18
-158 49 -217 49 l-65 0 -10 -37z"/>
<path d="M1647 6393 c-13 -12 -7 -94 8 -122 8 -16 45 -52 83 -80 72 -53 85
-72 71 -109 -18 -48 -110 -35 -156 23 -24 30 -28 32 -62 23 -53 -14 -54 -20
-22 -65 62 -86 217 -126 288 -75 40 28 68 98 59 146 -6 33 -76 116 -97 116 -5
0 -24 14 -44 31 -59 52 -45 109 26 109 36 0 89 -36 100 -67 3 -9 14 -9 47 0
47 12 49 17 26 52 -16 25 -18 25 -168 25 -84 0 -156 -3 -159 -7z"/>
<path d="M3080 6376 c-5 -13 -12 -39 -15 -58 -6 -33 -5 -35 36 -47 34 -10 43
-10 50 1 8 12 39 109 39 122 0 3 -23 6 -50 6 -44 0 -52 -3 -60 -24z"/>
<path d="M3293 6378 c3 -13 9 -57 13 -99 l6 -76 52 -15 c28 -9 52 -15 53 -14
1 0 -6 52 -14 114 l-16 112 -50 0 c-46 0 -49 -1 -44 -22z"/>
<path d="M3523 6278 c-26 -82 -36 -125 -29 -129 19 -12 286 -93 290 -88 2 2 7
20 11 40 l7 37 -89 27 c-48 15 -92 31 -96 35 -12 11 24 120 39 120 7 0 48 -11
91 -25 42 -13 78 -23 79 -22 6 10 23 71 20 74 -2 2 -36 15 -76 29 -48 16 -94
24 -139 24 l-68 0 -40 -122z"/>
<path d="M3957 6393 c-4 -3 -7 -27 -7 -52 0 -61 26 -102 95 -148 64 -42 87
-76 74 -110 -18 -49 -110 -36 -156 21 -25 33 -26 33 -67 21 -46 -15 -47 -23
-9 -74 28 -37 105 -76 170 -86 67 -11 128 22 154 81 38 84 17 131 -93 212 -66
49 -84 86 -57 118 27 33 129 1 144 -46 5 -15 12 -19 23 -15 10 4 29 9 45 12
31 6 34 19 11 51 -14 21 -21 22 -168 22 -84 0 -156 -3 -159 -7z"/>
<path d="M4970 6391 c34 -19 58 -22 64 -6 4 12 -3 15 -37 15 -28 -1 -37 -3
-27 -9z"/>
<path d="M5363 6338 c-9 -35 -16 -65 -16 -68 3 -10 87 -30 94 -22 6 6 49 136
49 148 0 2 -25 4 -54 4 l-55 0 -18 -62z"/>
<path d="M5581 6373 c0 -16 6 -64 12 -108 l12 -80 50 -16 c28 -9 51 -15 53
-14 2 2 -4 51 -12 109 -20 131 -20 124 2 129 9 3 -13 5 -50 6 -68 1 -68 1 -67
-26z"/>
<path d="M5816 6277 c-21 -67 -41 -127 -43 -133 -3 -10 264 -104 294 -104 5 0
14 18 20 40 l10 40 -96 31 c-53 17 -97 32 -99 34 -2 2 4 28 14 59 12 37 23 56
33 56 9 0 50 -12 91 -25 41 -14 75 -25 77 -25 5 0 26 80 22 84 -17 13 -210 66
-243 66 l-41 0 -39 -123z"/>
<path d="M6239 6373 c-14 -37 -5 -100 18 -131 10 -14 46 -45 81 -69 l62 -45 0
60 c0 56 -2 62 -30 82 -45 32 -41 89 8 104 44 14 20 26 -53 26 -73 0 -76 -1
-86 -27z"/>
<path d="M2099 6335 c-55 -30 -78 -141 -41 -197 10 -15 47 -49 84 -77 67 -51
82 -75 66 -104 -27 -49 -109 -38 -157 20 -26 31 -28 32 -64 21 -46 -14 -48
-36 -5 -79 76 -75 213 -104 274 -57 38 29 42 35 55 83 17 62 -1 107 -64 155
-29 22 -64 49 -79 60 -37 28 -38 73 -3 96 23 15 30 15 63 2 20 -7 46 -27 57
-44 19 -28 23 -29 55 -21 48 12 54 20 37 53 -42 81 -200 132 -278 89z"/>
<path d="M4404 6331 c-40 -24 -68 -92 -59 -140 9 -50 38 -85 105 -131 31 -21
60 -46 64 -55 12 -32 6 -55 -18 -70 -35 -23 -96 -5 -133 40 -28 33 -29 34 -71
23 -23 -6 -42 -13 -42 -17 0 -19 45 -74 77 -94 55 -34 99 -47 160 -47 49 0 59
4 88 33 35 35 56 92 48 129 -10 47 -29 71 -95 118 -73 54 -90 76 -81 108 13
51 110 41 149 -15 20 -30 21 -30 60 -17 21 8 40 14 42 14 2 0 -6 17 -18 38
-48 86 -198 131 -276 83z"/>
<path d="M216 6118 c-27 -84 -61 -190 -77 -236 -26 -76 -27 -83 -11 -88 9 -3
27 -10 40 -15 37 -15 40 -12 63 64 13 39 26 76 30 81 5 5 33 2 67 -8 75 -21
118 -20 162 2 104 52 114 211 18 270 -32 20 -209 82 -234 82 -6 0 -32 -69 -58
-152z m191 23 c23 -11 49 -31 58 -44 14 -23 15 -29 1 -61 -10 -24 -23 -37 -41
-42 -27 -7 -135 12 -135 24 0 3 10 36 22 74 24 76 30 78 95 49z"/>
<path d="M2535 6148 c-21 -68 -53 -169 -72 -226 -18 -57 -33 -109 -33 -116 0
-15 81 -40 90 -28 4 4 16 40 29 80 12 39 28 72 34 72 7 0 34 -7 61 -15 139
-42 238 19 240 149 1 88 -45 129 -195 176 -53 16 -101 30 -106 30 -5 0 -27
-55 -48 -122z m182 -7 c23 -11 49 -31 58 -45 16 -24 16 -28 -2 -63 -12 -26
-26 -39 -43 -42 -26 -3 -130 18 -130 27 0 3 10 36 22 74 24 76 30 78 95 49z"/>
<path d="M4812 6046 c-40 -123 -72 -231 -72 -238 0 -12 57 -38 83 -38 3 0 17
36 32 80 15 44 32 80 38 80 7 0 34 -7 61 -15 65 -20 113 -19 156 3 104 52 114
211 18 270 -32 20 -209 82 -233 82 -6 0 -43 -101 -83 -224z m230 88 c15 -8 35
-25 44 -39 15 -23 15 -27 -3 -62 -12 -26 -26 -39 -43 -42 -28 -3 -130 17 -130
27 0 3 10 36 22 74 22 68 22 69 53 62 16 -3 42 -13 57 -20z"/>
<path d="M601 5905 c-41 -129 -73 -236 -70 -238 13 -10 85 -25 90 -19 4 4 19
45 34 91 l27 83 31 -6 c17 -4 35 -10 40 -15 7 -7 20 -85 30 -180 3 -32 7 -36
55 -52 37 -13 52 -14 52 -6 0 7 -7 55 -15 107 -18 120 -18 120 2 120 30 0 82
44 98 83 30 76 9 147 -57 187 -30 18 -211 80 -233 80 -6 0 -43 -106 -84 -235z
m211 109 c62 -21 82 -44 74 -87 -9 -49 -39 -60 -112 -40 -33 8 -60 16 -62 18
-7 7 33 125 43 125 6 0 32 -7 57 -16z"/>
<path d="M2915 5918 c-38 -121 -71 -227 -73 -234 -3 -12 57 -44 82 -44 6 0 24
41 39 90 29 94 35 100 81 78 27 -12 34 -34 39 -118 l2 -44 -53 -8 c-64 -10
-168 -50 -237 -92 -85 -51 -137 -93 -231 -187 -79 -79 -93 -90 -110 -80 -10 6
-32 16 -48 21 -16 6 -26 16 -23 23 2 6 13 38 23 70 18 57 18 58 48 51 30 -6
65 -23 96 -45 12 -9 23 -5 48 17 18 16 32 32 32 35 0 16 -74 52 -162 80 -51
16 -98 29 -104 29 -9 0 -155 -439 -154 -466 0 -9 61 -34 83 -34 3 0 17 36 32
81 27 81 27 81 58 75 17 -3 32 -8 34 -10 2 -1 -18 -40 -43 -84 -31 -56 -52
-82 -64 -82 -10 0 -40 -16 -66 -36 -26 -20 -84 -55 -128 -78 -69 -35 -90 -41
-146 -41 -49 -1 -70 3 -85 17 -53 45 -173 62 -226 31 -52 -31 -76 -125 -47
-188 10 -22 16 -25 37 -20 14 4 28 11 29 16 2 5 10 9 18 9 10 0 12 10 8 44 -6
39 -4 46 17 60 20 12 32 13 65 5 34 -9 48 -8 75 6 19 10 31 15 28 11 -15 -16
-154 -115 -224 -160 -42 -26 -95 -66 -117 -87 -22 -21 -52 -46 -67 -56 -25
-16 -92 -86 -156 -161 -16 -20 -38 -44 -47 -54 -10 -10 -18 -21 -18 -25 0 -5
-10 -19 -21 -33 l-21 -25 17 28 c20 35 14 44 -22 31 -58 -20 -97 -118 -70
-174 15 -29 14 -33 -24 -109 -33 -66 -43 -78 -59 -74 -20 5 -29 -12 -9 -19 9
-3 -49 -96 -164 -262 -15 -21 -27 -45 -27 -52 0 -12 -88 -204 -94 -204 -2 0
-17 5 -33 10 l-30 11 16 55 c17 57 20 59 75 38 11 -4 19 5 30 31 9 21 16 39
16 40 0 3 -164 55 -172 55 -3 0 -10 -19 -17 -42 -7 -24 -39 -126 -72 -228 -32
-101 -59 -189 -59 -195 0 -6 39 -24 88 -39 48 -16 93 -31 101 -34 11 -4 11 -1
2 16 -7 12 -8 22 -3 22 4 0 30 -55 56 -122 l49 -123 -11 -105 c-6 -58 -9 -117
-6 -132 l6 -26 -96 30 c-53 17 -98 29 -100 27 -6 -7 -146 -453 -146 -465 0 -9
222 -87 274 -96 20 -3 42 41 33 65 -2 7 -46 26 -96 42 -50 16 -91 33 -91 39 0
18 34 116 40 116 4 0 40 -11 80 -25 40 -14 79 -25 86 -25 11 0 41 67 32 74 -1
2 -42 16 -90 30 l-86 27 10 32 c5 18 12 42 15 55 7 27 4 27 89 -1 115 -40 127
-41 121 -18 -3 12 0 18 7 16 6 -2 30 -9 54 -15 l43 -11 -24 -19 c-16 -12 -29
-38 -37 -69 -18 -78 7 -121 120 -204 38 -28 45 -38 45 -67 0 -26 -6 -37 -23
-46 -36 -18 -97 2 -131 43 -28 34 -29 34 -70 22 -22 -7 -41 -15 -41 -18 0 -4
11 -22 24 -41 54 -80 213 -125 283 -81 57 36 81 118 55 183 -6 15 -45 52 -86
83 -78 57 -94 81 -77 114 24 44 103 33 145 -22 24 -30 25 -30 65 -19 29 9 39
17 35 27 -4 8 -3 15 0 15 11 0 81 -47 94 -63 11 -13 10 -15 -7 -10 -16 4 -22
-2 -31 -38 -22 -80 -3 -111 129 -217 43 -35 54 -75 29 -100 -29 -29 -121 -3
-155 44 -20 27 -22 27 -62 16 -22 -7 -41 -17 -41 -23 0 -5 21 -31 47 -57 77
-77 199 -103 268 -58 31 21 55 67 57 110 l1 33 73 -51 c40 -28 104 -73 144
-101 128 -88 272 -251 284 -322 4 -21 20 -95 37 -164 31 -137 35 -166 17 -134
-6 11 -19 25 -27 32 -27 21 -232 86 -241 77 -4 -5 -20 -47 -35 -94 -15 -47
-47 -148 -71 -224 -24 -77 -44 -143 -44 -147 0 -7 89 -34 93 -28 2 2 14 39 27
82 13 42 26 77 29 77 3 0 28 -7 55 -15 55 -17 123 -19 158 -6 33 13 78 60 79
85 1 11 7 -17 14 -62 11 -81 11 -86 -17 -164 -15 -44 -28 -85 -28 -92 0 -15
75 -40 90 -31 6 4 10 3 8 -2 -1 -4 2 -27 6 -49 l7 -41 61 -7 c34 -3 104 -6
157 -6 54 0 101 -4 107 -9 11 -11 256 -91 277 -91 13 0 26 31 29 67 0 5 -17
13 -38 19 -34 10 -14 12 141 18 99 3 239 9 310 12 l130 5 20 -37 c12 -22 46
-57 84 -83 68 -49 83 -73 70 -108 -18 -49 -110 -36 -156 21 -25 33 -26 33 -67
21 -46 -14 -47 -23 -10 -72 35 -47 126 -88 194 -87 85 0 129 38 145 126 10 55
-15 97 -98 159 l-72 54 259 3 c142 1 261 1 263 -2 2 -2 -27 -100 -65 -218
l-69 -215 48 -16 48 -15 27 82 c15 44 28 82 29 84 1 2 36 -7 76 -19 63 -18 80
-20 116 -10 55 15 98 59 112 116 23 90 -21 162 -119 195 -50 17 -50 17 190 17
154 -1 244 3 251 10 5 5 14 84 19 174 4 90 11 172 15 182 7 17 8 17 21 -1 15
-22 92 -57 147 -67 89 -17 168 49 169 141 1 56 -18 83 -103 147 -73 55 -87 79
-64 113 28 43 115 24 145 -30 14 -27 18 -27 78 -5 21 8 22 10 8 36 -31 61 -99
102 -183 110 -96 10 -156 -43 -157 -137 -1 -60 19 -89 100 -147 35 -26 67 -57
70 -69 22 -86 -74 -97 -158 -19 -36 33 -37 37 -31 80 6 49 -15 120 -49 164
-14 18 -18 41 -18 102 0 44 3 79 8 79 4 0 8 -14 8 -31 2 -47 26 -56 41 -16 17
48 16 55 -17 62 l-30 7 0 158 0 159 31 -11 c36 -12 46 -5 55 40 6 31 5 32 -40
44 l-46 12 0 73 0 72 57 -20 c31 -10 57 -18 58 -17 1 2 7 18 14 37 13 41 11
44 -71 67 l-58 17 0 69 c0 58 2 67 13 56 20 -20 176 -63 187 -52 5 5 12 23 16
40 l6 30 -104 32 c-57 18 -107 32 -110 32 -4 0 -8 -8 -11 -18 -2 -9 -7 10 -11
43 -4 33 -19 109 -32 170 -13 60 -24 123 -24 140 0 32 -51 148 -77 178 -9 9
-11 17 -5 17 6 0 20 -16 32 -35 12 -19 23 -35 24 -35 1 0 0 17 -2 38 -2 35 0
38 40 57 52 24 79 69 81 133 2 54 -26 103 -74 127 -29 15 -29 15 -45 -19 -16
-33 -16 -35 5 -62 23 -29 22 -64 -1 -91 -12 -15 -60 -17 -107 -3 -26 7 -37 6
-49 -7 -14 -14 -14 -17 0 -27 11 -8 0 -11 -54 -11 -37 0 -68 2 -68 5 0 3 25
14 55 23 152 47 245 174 244 337 0 80 -20 232 -38 290 -14 45 -14 48 4 24 11
-14 14 -15 15 -4 1 33 14 40 52 28 40 -12 41 -15 54 -138 4 -36 10 -72 14 -80
8 -15 88 -45 97 -36 3 2 -3 52 -11 110 -9 59 -16 108 -16 111 0 2 16 9 35 15
55 18 89 71 90 139 0 62 -19 97 -68 126 -42 25 -230 86 -238 78 -4 -5 -19 -48
-34 -98 -14 -49 -29 -97 -32 -105 -3 -9 -12 8 -23 40 -53 168 -58 196 -64 350
-3 85 -11 182 -16 214 -5 33 -8 61 -6 63 1 2 22 -4 46 -12 82 -29 166 -13 207
39 12 14 26 48 33 75 16 69 -10 128 -71 164 -38 22 -200 77 -226 77 -10 0 -43
-95 -43 -126 -1 -10 -17 28 -36 86 -40 124 -129 305 -188 387 -24 32 -65 77
-92 100 -27 24 -72 64 -101 90 -28 26 -92 68 -141 94 -108 56 -305 125 -384
134 -60 8 -64 10 -49 34 8 12 21 11 88 -9 43 -12 83 -25 89 -27 6 -2 14 7 18
20 3 14 8 32 12 40 4 11 -15 21 -78 42 -46 15 -86 29 -90 31 -10 6 24 104 36
104 6 0 52 -13 102 -29 l92 -28 12 38 c7 22 11 41 9 43 -7 7 -267 86 -281 86
-13 0 -58 -122 -109 -297 -10 -37 -17 -44 -48 -53 -80 -22 -81 -21 -97 93 -5
41 -4 47 12 47 31 0 83 44 99 83 30 76 9 146 -57 187 -32 20 -206 80 -231 80
-7 0 -40 -90 -82 -222z m234 84 c19 -9 39 -24 44 -33 14 -23 0 -66 -26 -84
-21 -13 -30 -13 -82 0 -33 9 -61 17 -63 19 -1 2 5 31 15 65 18 61 19 62 48 57
16 -4 45 -14 64 -24z m-519 -626 c0 -2 -7 -7 -16 -10 -8 -3 -12 -2 -9 4 6 10
25 14 25 6z m-74 -74 c0 -10 -8 -18 -18 -18 -16 0 -16 2 -1 18 9 10 17 18 17
18 1 0 2 -8 2 -18z m-108 -62 c-7 -11 -17 -20 -22 -20 -5 0 -1 9 9 20 10 11
20 20 22 20 2 0 -2 -9 -9 -20z m-3 -78 c-15 -16 -16 -15 -4 12 7 15 15 23 17
16 3 -7 -3 -19 -13 -28z m-15 -25 c0 -2 -10 -12 -22 -23 l-23 -19 19 23 c18
21 26 27 26 19z m-40 -129 c1 -38 2 -41 14 -25 16 20 26 22 26 3 0 -21 -49
-108 -78 -138 -14 -15 -22 -31 -18 -35 4 -5 19 5 32 20 13 15 24 24 24 20 -2
-39 -142 -183 -179 -183 -13 0 -22 2 -20 4 2 2 24 20 48 40 24 20 53 49 65 63
22 29 7 23 -34 -13 -14 -12 -45 -38 -70 -56 -25 -19 -44 -42 -44 -51 1 -10 -2
-17 -7 -17 -12 0 -69 80 -69 97 0 7 28 31 63 52 73 46 130 92 123 98 -3 3 -18
-4 -33 -16 -64 -50 -167 -111 -173 -104 -4 4 -19 29 -33 54 l-26 46 42 13 c59
17 132 56 204 107 60 42 62 43 65 21 4 -23 5 -23 16 3 6 15 17 29 24 32 31 13
38 6 38 -35z m763 -165 c9 -195 71 -482 105 -483 6 0 12 5 12 10 0 6 7 10 15
10 9 0 12 -6 8 -16 -5 -14 -3 -14 16 -3 11 8 21 22 21 33 0 18 -10 19 -51 2
-26 -11 -32 18 -37 178 -3 107 -1 147 7 142 6 -4 11 -18 11 -31 0 -36 30 -143
55 -202 13 -28 21 -54 19 -56 -10 -10 44 -56 76 -65 l35 -10 -37 -1 c-21 -1
-53 -8 -72 -18 -35 -16 -45 -37 -37 -81 3 -20 7 -22 38 -16 l35 7 -18 -34
c-28 -54 -25 -172 5 -237 26 -55 27 -55 105 -54 53 2 68 13 117 89 22 35 30
136 15 182 l-8 23 32 -18 c18 -11 50 -35 72 -55 38 -35 40 -39 37 -88 -2 -28
-1 -51 4 -51 4 0 7 -108 7 -240 l0 -239 -32 -37 c-36 -41 -244 -149 -353 -183
-33 -10 -93 -29 -133 -41 l-72 -23 -83 33 c-253 101 -380 181 -456 285 -47 63
-60 101 -112 310 -39 161 -41 176 -36 274 l6 104 36 29 c19 16 35 38 35 49 0
24 17 25 23 2 2 -10 7 6 12 35 4 28 9 52 10 52 2 0 33 -9 70 -21 37 -11 69
-19 71 -17 2 2 -28 14 -66 27 -38 12 -72 26 -75 31 -8 13 21 217 44 315 11 44
20 69 21 55 2 -14 4 -44 5 -66 7 -93 52 -268 82 -314 9 -13 19 -38 23 -55 4
-18 12 -30 22 -30 9 0 20 -4 24 -8 4 -4 20 -7 35 -7 31 0 31 -10 -4 108 -9 28
-14 52 -11 52 2 0 15 -24 29 -53 14 -29 34 -58 46 -65 20 -13 222 -28 238 -18
4 3 -1 38 -12 78 -15 57 -19 108 -20 238 0 156 18 334 33 325 4 -2 10 -66 13
-142z m1437 -84 c61 -26 77 -60 52 -111 -13 -24 -25 -34 -46 -36 -31 -4 -113
15 -121 28 -8 14 39 140 53 140 7 0 35 -9 62 -21z m-971 -137 c13 -65 10 -82
-15 -82 -11 0 -14 17 -14 82 0 93 12 93 29 0z m821 43 c0 -5 -5 -3 -10 5 -5 8
-10 20 -10 25 0 6 5 3 10 -5 5 -8 10 -19 10 -25z m-2210 -41 c0 -17 -21 -64
-29 -64 -4 0 -14 13 -24 29 -17 29 -17 30 4 45 24 16 49 11 49 -10z m2230 -29
c5 -21 5 -34 0 -29 -10 11 -25 82 -15 72 4 -3 11 -23 15 -43z m-815 -97 c11
-48 46 -150 61 -173 13 -20 31 -165 21 -165 -3 0 -31 27 -63 60 -31 33 -75 71
-98 84 -37 22 -42 29 -43 65 -1 23 0 41 2 41 2 0 18 -20 35 -45 41 -60 53 -58
46 8 -14 116 -14 129 -9 143 10 27 41 16 48 -18z m-1529 -156 c-3 -5 -12 -76
-21 -157 -8 -82 -18 -151 -20 -154 -3 -2 -5 3 -5 13 0 18 -46 40 -68 31 -11
-4 -13 8 -7 72 7 74 10 81 58 141 28 34 54 62 59 62 5 0 7 -4 4 -8z m1314
-109 c0 -5 3 -19 7 -32 4 -18 3 -22 -8 -19 -8 3 -22 1 -33 -4 -29 -16 -42 6
-22 36 15 24 56 37 56 19z m35 -183 c-3 -5 -10 -10 -16 -10 -5 0 -9 5 -9 10 0
6 7 10 16 10 8 0 12 -4 9 -10z m5 -22 c28 17 35 15 49 -14 23 -51 -4 -81 -72
-80 -30 1 -42 7 -54 28 -15 24 -15 28 0 52 15 23 20 24 37 14 16 -10 24 -10
40 0z m-1431 -111 l-31 -95 -27 14 c-14 8 -32 14 -38 14 -15 0 -66 -68 -98
-131 -13 -25 -32 -52 -42 -60 -17 -13 -17 -13 -1 11 9 14 36 57 59 95 23 39
45 72 49 75 12 8 58 102 66 133 5 21 11 26 23 21 40 -16 49 -15 56 6 4 12 9
20 11 17 3 -2 -10 -47 -27 -100z m2789 10 c12 -11 22 -31 22 -44 0 -30 -33
-63 -63 -63 -21 0 -117 28 -117 34 0 6 33 112 36 118 7 11 97 -23 122 -45z
m-238 -105 c0 -15 -2 -15 -10 -2 -13 20 -13 33 0 25 6 -3 10 -14 10 -23z m7
-54 c-3 -8 -6 -5 -6 6 -1 11 2 17 5 13 3 -3 4 -12 1 -19z m-2652 -7 c11 -5 25
-4 32 1 6 5 0 -23 -13 -62 -14 -39 -30 -108 -36 -153 -13 -99 -1 -156 43 -200
25 -25 28 -32 17 -45 -28 -33 -131 -102 -164 -108 -19 -3 -34 -11 -34 -16 0
-26 140 44 183 91 l35 39 75 -36 c81 -40 77 -33 62 -108 -6 -26 -7 -26 -58
-18 -29 4 -106 8 -172 8 -117 1 -121 2 -180 35 -82 46 -96 68 -45 68 17 0 33
2 36 5 15 15 -58 108 -84 108 -10 0 -13 -8 -10 -25 6 -27 1 -30 -21 -16 -18
12 -6 46 34 96 18 22 40 56 50 75 10 19 33 59 52 88 30 48 35 52 49 38 8 -9
24 -16 34 -16 17 0 24 15 65 148 5 14 20 14 50 3z m2551 -37 c12 -29 13 -42 3
-72 -7 -20 -8 -37 -3 -39 46 -16 60 -33 87 -103 31 -78 41 -170 21 -190 -7 -7
-29 -5 -75 10 l-65 20 1 205 c0 113 4 205 8 205 4 0 15 -16 23 -36z m-2408
-144 c-7 -153 -52 -243 -88 -175 -20 37 -7 110 42 232 49 124 53 119 46 -57z
m22 -128 c0 -9 11 -41 25 -69 13 -29 21 -53 17 -53 -7 0 -94 32 -101 37 -2 1
1 8 7 15 5 7 15 32 21 56 11 41 31 50 31 14z m-1359 -49 c-12 -20 -14 -14 -5
12 4 9 9 14 11 11 3 -2 0 -13 -6 -23z m-11 -28 c0 0 -10 -32 -23 -71 -22 -69
-23 -70 -50 -61 -32 10 -32 14 -10 83 15 50 18 52 50 51 18 -1 33 -2 33 -2z
m2815 -106 c-9 -177 27 -299 94 -314 l30 -6 -69 -87 c-64 -82 -72 -88 -121
-99 -29 -7 -57 -17 -63 -23 -20 -20 3 -20 53 -1 28 10 51 17 51 14 0 -17 -98
-188 -129 -225 -46 -55 -113 -116 -173 -156 -25 -18 -62 -51 -82 -74 -20 -23
-36 -36 -36 -30 0 6 -14 27 -31 46 -16 19 -34 49 -39 66 -11 37 -34 480 -26
488 3 3 14 -2 23 -10 42 -36 125 -89 131 -83 4 4 0 10 -8 15 -8 5 -46 31 -85
57 -67 46 -70 50 -70 88 0 36 3 40 30 45 17 4 40 12 52 18 16 9 23 9 27 -1 7
-14 -1 150 -10 208 -6 33 -4 38 7 28 7 -7 22 -13 33 -13 33 0 238 66 323 104
43 19 81 35 86 35 4 1 5 -40 2 -90z m965 -33 c0 -3 -4 -8 -10 -11 -5 -3 -10
-1 -10 4 0 6 5 11 10 11 6 0 10 -2 10 -4z m-3352 -701 c12 -11 -5 -11 -58 2
l-55 12 54 -4 c29 -2 56 -7 59 -10z m319 -295 c25 -52 27 -57 10 -35 -8 11
-31 37 -51 58 -20 21 -36 48 -36 60 1 20 4 18 31 -13 16 -19 37 -51 46 -70z
m2013 -420 l0 -100 -225 0 -225 0 0 -130 0 -130 205 0 205 0 0 -95 0 -95 -154
0 c-84 0 -174 -3 -200 -6 l-46 -7 0 -218 0 -219 -109 0 c-61 0 -112 3 -114 8
-3 4 -8 249 -12 544 l-7 538 189 3 c103 1 257 3 341 5 l152 2 0 -100z m-1458
-513 c47 -26 59 -67 31 -105 -26 -35 -59 -42 -116 -25 -53 15 -54 19 -29 104
17 58 18 59 47 53 17 -3 47 -15 67 -27z m2725 -139 c-3 -8 -6 -5 -6 6 -1 11 2
17 5 13 3 -3 4 -12 1 -19z m-508 -547 c34 -26 33 -74 -2 -108 -25 -26 -28 -26
-79 -14 -80 18 -80 17 -58 90 11 35 22 67 25 71 7 11 83 -15 114 -39z"/>
<path d="M2315 4870 c-27 -27 -84 -74 -127 -102 -73 -50 -91 -68 -68 -68 6 0
10 4 10 9 0 5 9 13 20 16 11 3 26 12 32 18 7 7 36 27 64 45 53 33 80 60 109
105 25 39 16 34 -40 -23z"/>
<path d="M2645 4279 c-48 -23 -117 -78 -111 -88 5 -7 -24 -118 -39 -155 -5
-12 -5 -17 1 -13 6 3 18 -7 28 -24 24 -41 36 -36 20 9 -7 20 -10 48 -7 62 7
29 57 96 82 110 16 8 18 3 19 -42 1 -74 30 -153 71 -200 36 -40 38 -41 85 -34
43 7 49 11 63 44 18 44 13 226 -8 264 -7 13 -14 30 -15 38 -9 50 -113 66 -189
29z m65 -88 c14 -27 13 -31 -9 -31 -11 0 -23 -4 -26 -10 -18 -29 -33 6 -19 44
8 22 41 20 54 -3z m116 -168 c14 -19 18 -61 8 -87 -10 -25 -72 -21 -95 7 -33
40 -18 102 17 67 14 -14 44 -2 44 16 0 19 10 18 26 -3z"/>
<path d="M2970 3861 c0 -25 6 -27 13 -6 4 8 2 17 -3 20 -6 4 -10 -3 -10 -14z"/>
<path d="M3012 3598 c-19 -19 -14 -33 6 -16 9 9 24 18 32 21 11 4 9 6 -5 6
-12 1 -26 -4 -33 -11z"/>
<path d="M3130 3570 c19 -10 37 -16 40 -13 9 8 -33 33 -54 33 -16 -1 -13 -5
14 -20z"/>
<path d="M3270 2739 c0 -12 25 -22 41 -17 6 2 0 9 -15 16 -16 7 -26 8 -26 1z"/>
<path d="M5222 5913 c-40 -126 -72 -233 -72 -239 0 -6 19 -16 41 -23 34 -10
43 -10 50 1 10 15 49 141 49 157 0 14 32 14 63 0 23 -10 26 -21 38 -117 l14
-105 53 -18 53 -18 -6 32 c-31 185 -31 207 -5 207 33 0 86 56 100 105 17 62 1
115 -45 151 -30 23 -219 94 -250 94 -6 0 -44 -102 -83 -227z m222 93 c60 -27
77 -56 57 -95 -20 -36 -43 -42 -107 -25 -32 8 -60 17 -63 19 -9 10 33 125 45
125 8 0 38 -11 68 -24z"/>
<path d="M6168 6108 c-34 -12 -34 -16 -5 -59 30 -45 135 -99 194 -99 l43 0 0
48 0 48 -37 -4 c-46 -4 -104 24 -118 56 -10 24 -33 27 -77 10z"/>
<path d="M1106 6001 c-15 -23 -147 -455 -143 -466 3 -6 23 -17 44 -23 21 -5
83 -24 137 -41 55 -17 103 -28 108 -23 4 4 10 22 14 39 l6 31 -88 27 c-49 15
-93 30 -97 35 -11 10 23 120 37 120 6 0 47 -11 91 -25 44 -14 81 -25 81 -25 1
0 5 11 8 24 3 13 8 31 12 39 4 11 -15 21 -78 42 -46 15 -86 29 -90 31 -13 8
25 104 41 104 9 0 54 -13 101 -29 l85 -29 12 32 c18 48 16 51 -34 65 -27 8
-92 29 -145 47 -54 18 -100 29 -102 25z"/>
<path d="M5710 5963 c-5 -21 -39 -127 -74 -235 l-64 -198 145 -46 c81 -25 149
-42 154 -37 5 5 11 23 15 40 l6 32 -88 27 c-49 15 -93 30 -98 34 -11 11 22
120 37 120 7 0 48 -11 91 -25 44 -14 80 -24 81 -23 1 2 7 18 14 37 14 42 13
43 -87 72 -40 12 -74 25 -76 28 -2 3 3 27 12 54 10 30 21 47 31 47 9 -1 54
-13 101 -29 l85 -28 12 29 c7 17 13 36 13 42 0 12 -250 96 -284 96 -9 0 -19
-15 -26 -37z"/>
<path d="M1490 5847 c-61 -31 -89 -130 -55 -197 8 -15 46 -51 85 -79 59 -43
70 -56 70 -80 0 -34 -23 -61 -51 -61 -35 0 -86 27 -109 58 -21 28 -24 29 -61
19 -47 -11 -50 -32 -14 -76 62 -73 214 -110 279 -68 30 20 65 88 66 125 0 40
-31 91 -72 120 -81 55 -108 83 -108 111 0 15 5 32 12 39 30 30 129 -3 143 -48
4 -13 12 -19 23 -16 9 3 29 8 45 12 33 8 34 22 5 60 -30 39 -54 56 -107 76
-55 20 -117 23 -151 5z"/>
<path d="M3794 5844 c-60 -29 -84 -137 -45 -201 11 -17 46 -50 78 -72 32 -23
83 -61 113 -85 53 -42 55 -43 63 -23 21 54 -10 104 -105 175 -66 49 -84 86
-57 118 27 33 129 1 144 -46 7 -21 13 -21 72 1 29 11 20 41 -23 83 -60 59
-174 83 -240 50z"/>
<path d="M6114 5851 c-50 -22 -89 -107 -74 -160 14 -51 29 -69 98 -119 72 -52
85 -72 71 -110 -18 -47 -108 -35 -155 21 -27 32 -42 35 -91 16 -23 -8 -23 -10
-8 -38 41 -79 190 -138 275 -108 41 14 76 62 85 117 10 58 -17 101 -100 163
-53 40 -71 59 -73 80 -5 44 15 60 67 54 43 -5 81 -32 93 -67 3 -9 14 -9 46 1
23 6 42 16 42 20 0 26 -47 79 -91 103 -54 30 -147 43 -185 27z"/>
<path d="M1865 5698 c-32 -29 -38 -42 -43 -88 -6 -70 14 -107 88 -159 31 -22
62 -47 70 -56 30 -36 4 -94 -43 -95 -28 0 -93 37 -114 65 -17 24 -21 25 -53
14 -51 -17 -53 -22 -26 -58 48 -65 124 -101 212 -101 45 0 59 5 89 31 44 39
62 97 46 151 -9 28 -27 49 -64 78 -29 22 -64 49 -79 60 -36 28 -38 73 -5 95
40 26 121 -12 139 -66 3 -10 65 6 82 22 5 5 -1 24 -16 46 -33 51 -105 86 -184
91 -59 4 -64 3 -99 -30z"/>
<path d="M4188 5712 c-54 -33 -76 -133 -42 -191 9 -15 43 -47 76 -71 33 -24
67 -54 75 -67 14 -21 14 -26 -1 -49 -10 -14 -24 -28 -32 -31 -24 -9 -102 26
-127 58 -16 21 -28 28 -41 23 -23 -9 -21 -11 56 -93 66 -69 69 -71 116 -71 71
0 113 33 133 105 17 62 -1 107 -64 155 -29 22 -64 49 -79 60 -37 28 -38 73 -3
96 23 15 30 15 63 2 20 -7 46 -27 57 -44 20 -29 22 -30 60 -20 21 6 40 16 42
22 7 22 -44 79 -96 106 -64 33 -149 38 -193 10z"/>
<path d="M4592 5363 c-40 -126 -72 -233 -72 -239 0 -7 10 -14 23 -17 12 -3 32
-8 43 -12 20 -6 24 1 49 75 24 73 30 81 49 77 107 -25 136 -29 168 -23 57 10
95 49 114 113 15 51 15 58 -1 100 -11 29 -29 52 -54 68 -33 22 -208 85 -236
85 -6 0 -43 -99 -83 -227z m234 89 c47 -22 59 -55 37 -101 -20 -40 -36 -46
-98 -37 -73 11 -77 20 -52 99 21 67 21 68 52 61 16 -4 44 -13 61 -22z"/>
<path d="M21 5418 c-18 -62 -21 -97 -20 -228 l1 -155 20 58 c18 51 23 58 42
54 107 -25 136 -29 168 -23 57 10 95 49 114 113 15 51 15 58 -1 100 -22 57
-65 86 -187 124 -51 16 -98 29 -104 29 -6 0 -21 -33 -33 -72z m164 -57 c22
-10 46 -25 54 -34 34 -42 1 -117 -51 -117 -25 0 -103 17 -116 25 -1 1 7 34 20
74 24 79 29 81 93 52z"/>
<path d="M5032 5322 c-24 -75 -55 -173 -69 -217 -40 -127 -40 -119 9 -132 24
-6 46 -9 49 -5 4 4 19 45 34 91 l27 83 31 -6 c17 -4 35 -10 40 -15 4 -4 14
-54 21 -110 7 -56 15 -103 17 -105 2 -2 25 -10 52 -19 55 -18 52 -27 32 103
-18 119 -18 120 1 120 53 0 114 81 114 151 0 43 -30 93 -72 119 -32 20 -206
80 -231 80 -7 0 -30 -59 -55 -138z m182 12 c56 -19 80 -51 71 -92 -9 -44 -41
-54 -111 -35 -33 8 -61 16 -63 18 -3 4 27 101 36 118 6 10 13 9 67 -9z"/>
<path d="M6363 5373 c-13 -2 -23 -8 -23 -11 0 -9 49 -82 55 -82 3 0 5 23 5 50
0 28 -3 49 -7 49 -5 -1 -18 -4 -30 -6z"/>
<path d="M381 5125 c-41 -130 -72 -237 -70 -239 10 -10 84 -25 90 -18 4 4 19
45 34 91 l27 83 31 -6 c17 -4 35 -10 40 -15 5 -5 15 -55 21 -110 7 -56 14
-102 17 -104 2 -2 25 -11 52 -20 55 -18 52 -27 32 103 -18 119 -18 120 0 120
57 0 114 76 115 150 0 40 -28 92 -63 115 -29 18 -213 85 -236 85 -12 0 -33
-55 -90 -235z m238 97 c19 -9 39 -24 44 -33 14 -23 0 -66 -27 -85 -23 -14 -30
-14 -86 2 -47 13 -60 21 -57 33 3 9 11 38 18 64 13 47 15 48 43 43 17 -4 46
-14 65 -24z"/>
<path d="M5506 5321 c-13 -21 -146 -456 -142 -466 3 -10 257 -95 282 -95 5 0
15 17 20 39 l10 38 -93 28 c-52 16 -96 32 -99 37 -8 12 28 118 40 118 6 0 47
-11 91 -25 43 -13 80 -23 81 -22 10 15 22 72 17 77 -5 3 -35 14 -68 24 -113
35 -106 28 -87 85 9 28 21 51 26 51 6 0 52 -13 101 -28 l90 -29 13 30 c6 16
12 35 12 41 0 7 -35 23 -77 36 -43 13 -108 34 -145 46 -37 12 -70 19 -72 15z"/>
<path d="M880 5215 c0 -2 -32 -104 -71 -226 -39 -121 -68 -226 -66 -233 6 -16
277 -100 288 -89 5 5 11 23 15 40 l6 32 -88 27 c-49 15 -93 30 -97 34 -14 12
24 120 42 120 9 0 39 -8 66 -19 96 -35 100 -35 113 6 6 21 8 40 4 43 -4 4 -43
17 -87 30 -44 13 -81 24 -82 25 -8 4 33 105 42 105 6 0 52 -13 102 -28 l91
-29 12 39 c6 22 10 41 8 43 -2 2 -62 21 -134 44 -123 38 -164 48 -164 36z"/>
<path d="M5895 5171 c-45 -20 -69 -59 -72 -119 -5 -73 15 -106 97 -162 64 -43
82 -71 70 -105 -18 -50 -93 -44 -149 13 -36 36 -50 39 -98 21 -23 -8 -23 -10
-8 -39 34 -67 167 -129 243 -115 20 4 48 15 63 26 28 19 59 84 59 120 0 38
-32 89 -72 117 -81 55 -108 83 -108 111 0 15 5 32 12 39 30 30 129 -3 143 -48
4 -14 12 -19 22 -16 8 3 20 6 27 6 7 0 21 6 31 14 18 13 18 14 -3 48 -41 67
-191 118 -257 89z"/>
<path d="M1275 5071 c-46 -21 -69 -59 -73 -125 -4 -62 -3 -64 34 -102 22 -21
60 -54 87 -71 38 -27 47 -38 47 -62 0 -34 -23 -61 -51 -61 -33 0 -84 26 -106
54 -21 26 -39 31 -80 20 -77 -21 55 -141 172 -159 86 -13 155 38 170 125 10
58 -17 101 -100 163 -53 40 -71 59 -73 80 -5 44 15 60 67 54 43 -5 81 -32 93
-67 3 -11 63 4 82 21 16 15 -33 75 -84 103 -55 30 -148 43 -185 27z"/>
<path d="M6279 5035 c-56 -31 -77 -138 -39 -200 11 -19 43 -48 70 -65 28 -18
59 -44 70 -58 l20 -25 0 65 c0 63 -1 65 -40 97 -30 24 -40 39 -40 61 0 33 37
65 64 54 13 -5 16 1 16 40 l0 46 -47 0 c-27 -1 -60 -7 -74 -15z"/>
<path d="M0 4589 l0 -169 28 -12 c15 -6 62 -12 104 -12 68 -1 79 2 103 24 87
81 79 206 -16 260 -23 12 -82 35 -130 50 l-89 28 0 -169z m140 33 c47 -23 63
-56 46 -96 -19 -48 -51 -59 -120 -39 -45 13 -56 19 -51 32 4 9 14 42 22 74 16
55 18 58 42 52 14 -3 42 -14 61 -23z"/>
<path d="M4857 4753 c-6 -11 -134 -411 -142 -444 -6 -24 -3 -27 37 -37 23 -6
46 -8 49 -4 4 4 14 32 24 62 34 111 34 112 69 104 17 -3 34 -9 38 -13 4 -3 14
-53 22 -110 8 -56 16 -104 18 -105 1 -2 24 -10 51 -19 55 -18 52 -27 32 103
-19 122 -19 117 13 123 82 16 129 138 83 214 -26 41 -86 75 -192 107 -94 29
-96 29 -102 19z m135 -119 c62 -21 82 -44 74 -87 -9 -51 -42 -62 -118 -41 -46
13 -58 21 -55 33 3 9 11 37 18 64 7 26 18 47 24 47 6 0 32 -7 57 -16z"/>
<path d="M6163 4698 c-41 -14 -42 -34 -3 -76 42 -46 123 -82 188 -82 l52 0 0
66 0 65 -23 -27 c-23 -27 -25 -27 -71 -14 -32 9 -56 24 -74 47 -15 18 -29 33
-32 32 -3 -1 -20 -6 -37 -11z"/>
<path d="M396 4622 c-3 -5 -28 -80 -56 -168 -28 -87 -62 -192 -75 -231 l-24
-73 42 -11 c23 -6 45 -13 49 -15 4 -2 19 35 34 83 15 49 30 91 33 95 4 4 23 3
43 -4 l36 -11 11 -87 c6 -47 11 -96 11 -107 0 -17 11 -25 51 -38 28 -9 52 -15
54 -14 1 2 -3 47 -11 99 -18 131 -19 127 21 140 66 22 107 110 86 181 -17 57
-66 92 -178 129 -54 18 -103 35 -109 37 -7 2 -15 0 -18 -5z m197 -164 c32 -38
2 -98 -47 -98 -12 0 -41 6 -66 14 -41 12 -45 16 -43 43 2 16 10 46 18 66 l15
37 53 -20 c28 -11 60 -30 70 -42z"/>
<path d="M5280 4613 c0 -5 -34 -110 -74 -235 l-74 -228 145 -46 c83 -26 149
-42 154 -37 5 5 11 23 15 40 l6 31 -88 27 c-49 15 -93 31 -98 36 -13 11 24
119 41 119 7 0 47 -11 90 -25 42 -13 78 -23 79 -22 0 1 6 17 13 36 13 41 11
43 -67 66 -29 9 -63 20 -77 25 l-24 9 17 50 c9 28 21 51 27 51 6 0 52 -13 102
-28 l91 -29 13 39 c7 21 10 40 8 42 -8 7 -267 86 -283 86 -9 0 -16 -3 -16 -7z"/>
<path d="M757 4281 c-37 -116 -70 -222 -73 -238 l-5 -28 143 -46 c79 -25 146
-43 150 -40 3 3 9 22 13 42 l7 36 -96 28 c-53 16 -96 33 -96 38 0 21 34 117
41 117 5 0 45 -12 90 -26 83 -26 98 -24 99 13 0 6 3 18 6 27 4 12 -14 21 -83
42 -48 14 -89 27 -90 28 -7 6 33 106 41 106 6 0 51 -14 100 -30 49 -17 90 -30
92 -30 8 0 25 73 18 80 -9 8 -264 90 -280 90 -5 0 -40 -94 -77 -209z"/>
<path d="M5659 4457 c-42 -28 -59 -60 -59 -115 0 -62 22 -96 99 -152 77 -56
86 -69 69 -105 -23 -50 -108 -40 -155 19 -24 32 -28 33 -64 23 -46 -11 -49
-27 -13 -75 54 -70 196 -108 269 -72 33 16 75 89 75 128 0 43 -32 92 -79 124
-73 49 -101 79 -101 108 0 14 5 31 12 38 30 30 129 -3 143 -48 5 -15 12 -19
23 -15 10 4 29 9 45 12 32 6 32 5 11 48 -40 86 -199 133 -275 82z"/>
<path d="M6058 4333 c-36 -22 -58 -70 -58 -122 0 -68 9 -81 120 -163 47 -35
56 -54 46 -93 -13 -50 -89 -42 -147 16 -36 36 -39 37 -73 27 -39 -12 -42 -18
-25 -51 30 -56 129 -107 207 -107 85 0 131 38 147 121 11 59 -13 100 -99 163
-65 48 -76 60 -76 86 0 21 8 35 25 46 23 15 30 15 63 2 20 -7 46 -27 57 -44
19 -28 22 -29 57 -19 20 5 39 13 43 16 13 13 -39 81 -82 106 -59 34 -164 43
-205 16z"/>
<path d="M4518 4055 c2 -14 8 -27 12 -30 4 -2 5 7 2 20 -2 14 -8 27 -12 30 -4
2 -5 -7 -2 -20z"/>
<path d="M5046 3893 c-10 -32 -42 -134 -72 -227 -30 -93 -54 -174 -54 -181 0
-14 282 -106 293 -95 5 4 10 22 10 40 2 33 2 33 -88 63 -49 16 -92 31 -94 33
-6 6 31 124 39 124 3 0 40 -11 80 -25 40 -14 79 -25 86 -25 11 0 39 70 31 76
-1 1 -33 12 -72 24 -110 36 -106 31 -87 90 9 27 19 50 22 50 3 0 46 -13 95
-30 49 -16 92 -30 96 -30 7 0 29 54 29 71 0 7 -266 99 -287 99 -5 0 -17 -26
-27 -57z"/>
<path d="M0 3855 c0 -31 7 -55 21 -75 23 -31 21 -67 -6 -94 -9 -9 -15 -33 -15
-60 0 -53 14 -59 66 -27 59 36 90 142 59 202 -20 38 -34 51 -87 79 l-38 20 0
-45z"/>
<path d="M237 3813 c-2 -4 -23 -69 -47 -143 -23 -74 -55 -175 -71 -223 -16
-49 -29 -92 -29 -97 0 -9 55 -30 79 -30 11 0 24 26 44 91 22 71 32 89 44 85 8
-3 25 -9 38 -12 27 -7 31 -20 41 -131 3 -46 12 -86 18 -91 18 -13 87 -34 93
-29 2 3 -2 50 -11 105 -9 55 -16 104 -16 110 0 6 16 16 35 22 19 6 47 28 62
47 23 29 27 46 28 95 0 57 -2 61 -41 97 -30 29 -64 46 -140 71 -54 18 -104 35
-110 37 -7 2 -14 1 -17 -4z m193 -155 c40 -35 11 -108 -43 -108 -41 0 -119 31
-113 46 3 7 10 32 16 56 7 24 14 46 16 50 6 10 100 -24 124 -44z"/>
<path d="M5453 3796 c-44 -20 -73 -70 -73 -126 0 -59 24 -96 95 -151 76 -58
88 -76 72 -109 -23 -47 -104 -35 -152 21 -26 31 -45 35 -88 16 l-28 -12 23
-35 c30 -44 117 -97 175 -106 88 -13 150 24 174 106 21 69 -5 110 -129 208
-49 38 -58 83 -21 103 40 21 125 -15 140 -60 4 -11 13 -11 47 0 23 6 42 14 42
16 0 13 -32 61 -52 79 -58 54 -165 77 -225 50z"/>
<path d="M5850 3662 c-44 -22 -70 -68 -72 -126 -1 -56 30 -102 102 -149 63
-42 83 -74 67 -108 -8 -15 -23 -25 -41 -27 -39 -5 -101 24 -117 54 -14 27 -19
28 -72 13 -37 -10 -37 -10 -22 -38 49 -95 220 -149 301 -96 36 24 68 98 60
144 -5 36 -36 71 -135 150 -35 28 -42 38 -39 64 2 16 10 34 19 40 36 22 125
-17 140 -62 4 -11 13 -11 47 0 23 6 42 14 42 16 0 2 -7 17 -15 33 -20 39 -74
79 -131 96 -62 18 -92 18 -134 -4z"/>
<path d="M6353 3443 c-12 -38 -44 -141 -72 -229 -28 -89 -51 -166 -51 -171 0
-13 81 -37 90 -26 5 4 18 41 29 81 14 47 27 72 36 72 13 0 15 28 15 170 0 133
-3 170 -13 170 -7 0 -22 -29 -34 -67z"/>
<path d="M4860 3197 c-16 -39 -140 -432 -140 -444 0 -13 279 -107 289 -98 2 3
10 21 16 39 l12 34 -99 32 -99 31 6 31 c4 17 13 46 21 63 l13 33 88 -28 88
-29 14 40 c7 22 11 41 10 42 -2 2 -43 15 -91 30 l-87 28 14 46 c8 25 18 49 22
53 4 4 51 -7 104 -25 l97 -32 12 40 c6 21 10 40 8 42 -2 2 -61 22 -133 45 -71
23 -136 43 -143 45 -7 3 -17 -5 -22 -18z"/>
<path d="M5234 3051 c-35 -21 -54 -65 -54 -122 0 -58 18 -85 92 -141 38 -27
73 -59 78 -69 13 -24 -6 -66 -34 -73 -35 -9 -96 15 -125 51 -26 31 -28 32 -64
21 -47 -14 -47 -34 -3 -80 46 -48 100 -71 174 -76 53 -4 67 -1 97 19 38 26 52
51 61 108 9 56 -15 92 -101 156 -64 47 -75 59 -75 85 0 41 34 63 80 50 38 -11
80 -46 80 -68 0 -9 6 -12 18 -7 9 4 29 12 45 17 33 12 33 16 5 58 -50 74 -205
115 -274 71z"/>
<path d="M5675 2943 c-59 -15 -97 -69 -97 -140 0 -52 16 -79 73 -125 91 -71
110 -94 100 -120 -13 -37 -46 -49 -94 -32 -46 16 -77 41 -77 61 0 16 -17 17
-59 2 -41 -15 -40 -37 7 -81 59 -57 97 -72 179 -73 65 0 74 3 101 28 34 33 58
103 48 143 -8 32 -60 85 -128 131 -41 28 -48 37 -48 66 0 25 6 37 24 47 34 18
72 6 115 -37 34 -34 36 -35 73 -24 43 13 43 12 23 51 -22 43 -73 77 -140 95
-61 16 -67 16 -100 8z"/>
<path d="M0 2787 c0 -119 2 -136 15 -130 17 6 48 62 59 106 10 41 -9 99 -44
132 l-30 29 0 -137z"/>
<path d="M152 2798 c-12 -40 -46 -148 -76 -239 l-53 -166 48 -16 49 -15 26 86
c14 48 29 90 33 95 5 5 62 -7 78 -17 1 -1 7 -49 14 -108 l12 -107 49 -17 c27
-9 51 -14 53 -12 2 2 -3 46 -11 98 -7 52 -14 102 -14 110 0 9 19 24 42 35 56
26 82 72 82 143 0 50 -3 57 -40 92 -31 28 -65 45 -150 74 -60 20 -112 36 -115
36 -3 0 -15 -33 -27 -72z m153 -59 c70 -26 93 -56 75 -99 -7 -18 -22 -33 -37
-36 -23 -6 -110 12 -126 26 -6 6 22 130 30 130 1 0 27 -9 58 -21z"/>
<path d="M6193 2683 c-17 -54 -49 -154 -71 -223 -22 -69 -43 -132 -47 -141 -5
-13 4 -20 41 -33 26 -9 48 -15 50 -13 1 1 14 39 29 84 l26 82 40 -14 c22 -8
62 -17 89 -21 l50 -7 0 50 c0 48 -1 50 -25 45 -28 -5 -112 15 -121 30 -10 15
37 138 52 138 8 0 31 -7 51 -15 19 -8 37 -15 40 -15 2 0 3 21 1 47 l-3 47 -85
28 c-47 15 -85 28 -85 28 -1 0 -15 -44 -32 -97z"/>
<path d="M5030 2328 c-62 -33 -89 -132 -55 -199 9 -16 47 -52 85 -80 63 -46
70 -54 70 -85 0 -27 -5 -37 -25 -46 -37 -17 -98 5 -131 46 -24 29 -31 33 -55
26 -60 -18 -62 -22 -30 -67 40 -56 123 -96 199 -97 87 -1 130 37 147 126 9 49
-17 101 -67 136 -81 55 -108 83 -108 111 0 15 5 32 12 39 30 30 129 -3 143
-48 4 -13 12 -19 23 -16 9 3 29 8 45 12 32 7 33 16 7 59 -42 67 -196 117 -260
83z"/>
<path d="M5418 2193 c-55 -35 -77 -141 -41 -193 19 -28 74 -80 85 -80 3 0 20
-12 37 -26 21 -18 31 -35 31 -54 0 -31 -22 -60 -46 -60 -30 0 -96 34 -117 61
-21 27 -24 28 -60 17 -42 -13 -44 -21 -18 -64 29 -47 129 -94 200 -94 80 0
121 30 142 105 17 62 -1 107 -64 155 -29 22 -64 49 -79 60 -36 28 -38 73 -4
95 32 21 93 1 121 -41 20 -29 22 -30 60 -20 21 6 40 16 42 22 7 21 -43 79 -91
103 -64 33 -159 40 -198 14z"/>
<path d="M5920 1973 c-18 -60 -51 -162 -72 -228 -21 -66 -38 -125 -38 -131 0
-14 80 -38 90 -27 4 4 17 41 30 81 12 39 24 72 27 72 3 0 30 -7 60 -16 76 -22
155 -15 189 17 38 35 56 76 58 130 2 84 -50 131 -201 179 -51 17 -97 30 -101
30 -4 0 -23 -48 -42 -107z m188 -31 c47 -22 64 -54 50 -94 -6 -16 -21 -36 -33
-44 -21 -14 -30 -14 -85 2 -48 13 -60 20 -55 33 4 9 14 42 22 74 18 65 23 66
101 29z"/>
<path d="M35 2028 c-33 -91 -35 -107 -34 -267 l0 -166 20 63 c16 49 24 62 36
58 8 -3 25 -9 38 -12 26 -6 30 -22 41 -137 4 -42 12 -81 18 -86 15 -11 86 -34
92 -29 2 3 -3 52 -11 109 -8 57 -15 107 -15 111 0 3 16 12 35 18 70 23 111
116 86 193 -16 48 -70 83 -193 123 -120 39 -107 37 -113 22z m169 -133 c43
-21 56 -56 35 -94 -18 -33 -54 -37 -119 -16 -28 9 -50 18 -50 19 0 6 33 112
36 118 5 8 49 -4 98 -27z"/>
<path d="M6293 1722 c-40 -126 -73 -234 -73 -239 0 -6 20 -18 45 -26 l45 -16
29 92 c22 67 34 92 46 91 14 -2 15 17 13 159 -4 233 -14 228 -105 -61z"/>
<path d="M401 1703 c-71 -224 -85 -272 -80 -278 12 -12 285 -92 292 -86 4 4
10 23 13 42 l5 34 -95 29 c-53 16 -96 34 -96 39 0 19 34 117 40 117 4 0 40
-11 80 -25 40 -14 79 -25 86 -25 10 0 34 49 34 70 0 4 -40 19 -89 34 l-89 28
15 51 c8 29 17 54 18 56 2 1 47 -11 100 -29 53 -18 97 -30 99 -29 7 11 26 61
26 69 0 7 -266 100 -288 100 -4 0 -36 -89 -71 -197z"/>
<path d="M861 1747 c-50 -18 -74 -56 -79 -127 l-4 -60 49 -48 c27 -26 67 -61
88 -78 41 -32 48 -61 24 -90 -28 -34 -119 -7 -160 47 -15 20 -19 20 -52 10
-20 -7 -39 -16 -42 -20 -8 -14 65 -91 109 -113 31 -17 59 -22 114 -23 72 0 74
1 107 37 23 25 36 50 40 81 11 71 -12 104 -128 184 -38 27 -47 38 -47 63 0 20
8 34 25 46 32 21 84 5 120 -38 25 -30 28 -30 66 -19 21 6 39 14 39 18 0 15
-44 75 -68 92 -28 19 -123 51 -151 50 -9 0 -31 -5 -50 -12z"/>
<path d="M1253 1615 c-64 -28 -94 -126 -58 -194 8 -16 43 -52 79 -80 78 -61
89 -78 73 -112 -24 -47 -110 -32 -162 29 -21 25 -24 25 -64 14 -41 -13 -41
-13 -27 -40 35 -67 124 -116 213 -116 95 -1 145 47 147 140 1 50 -20 84 -85
132 -86 65 -90 71 -87 104 2 17 10 35 19 41 36 22 125 -17 140 -62 4 -11 13
-11 47 0 23 6 42 14 42 16 0 15 -35 65 -60 87 -33 27 -116 56 -159 56 -14 -1
-41 -7 -58 -15z"/>
<path d="M5254 1401 c-40 -24 -68 -91 -59 -141 9 -51 27 -73 100 -125 65 -47
83 -75 71 -113 -15 -46 -106 -32 -154 22 -29 33 -31 34 -71 24 -23 -6 -41 -13
-41 -17 0 -19 45 -74 77 -94 55 -34 99 -47 160 -47 49 0 59 4 88 33 18 18 38
52 44 74 18 65 -5 110 -86 169 -82 60 -98 83 -82 117 6 14 23 28 36 32 31 8
94 -23 108 -53 11 -24 36 -27 78 -9 l27 12 -17 32 c-48 87 -200 132 -279 84z"/>
<path d="M5722 1253 c-6 -21 -38 -123 -71 -227 -34 -104 -61 -195 -61 -201 0
-15 80 -40 90 -28 4 4 17 41 29 81 12 39 25 72 30 72 5 0 28 -7 51 -15 137
-48 254 19 254 147 0 85 -51 130 -201 178 -51 17 -97 30 -102 30 -5 0 -13 -17
-19 -37z m156 -98 c61 -28 80 -61 60 -103 -22 -44 -56 -54 -119 -36 -30 9 -55
17 -57 19 -7 6 43 145 52 145 6 0 35 -11 64 -25z"/>
<path d="M6137 1138 c-2 -13 -34 -115 -71 -228 -36 -113 -66 -210 -66 -217 0
-6 20 -18 45 -26 l45 -16 26 87 c15 48 30 90 33 94 4 4 23 2 43 -4 35 -10 37
-14 43 -62 3 -28 9 -78 13 -110 l7 -59 49 -14 c26 -8 50 -13 52 -11 2 2 -3 46
-11 98 -20 129 -20 127 20 140 l35 12 0 123 c0 117 -1 125 -22 136 -22 12
-217 79 -229 79 -4 0 -9 -10 -12 -22z m206 -151 c18 -23 18 -29 7 -56 -8 -19
-22 -34 -38 -38 -25 -6 -132 22 -132 35 0 11 28 101 35 112 9 15 108 -25 128
-53z"/>
<path d="M6 1109 c-3 -17 -6 -102 -5 -188 0 -117 3 -149 11 -128 11 30 24 33
62 15 26 -11 29 -19 41 -123 12 -100 12 -102 61 -115 24 -7 47 -11 50 -8 2 3
-2 51 -11 106 -18 125 -19 122 1 122 53 0 114 81 114 151 0 43 -30 93 -72 119
-31 19 -209 80 -234 80 -6 0 -14 -14 -18 -31z m173 -107 c19 -9 39 -24 44 -33
14 -23 0 -66 -26 -84 -21 -13 -30 -13 -82 0 -33 9 -61 17 -63 19 -1 2 5 31 15
65 18 61 19 62 48 57 16 -4 45 -14 64 -24z"/>
<path d="M432 968 c-5 -18 -38 -122 -72 -231 -37 -115 -59 -202 -54 -206 17
-16 277 -92 285 -84 5 5 11 23 15 40 l6 32 -88 27 c-49 15 -93 31 -98 35 -12
11 22 119 38 119 7 0 37 -8 67 -18 106 -37 107 -37 118 5 12 43 10 46 -67 68
-29 9 -63 20 -77 25 l-24 9 17 50 c10 33 21 51 31 51 9 -1 54 -13 101 -29 l85
-28 12 29 c7 17 13 36 13 42 0 12 -250 96 -283 96 -10 0 -20 -14 -25 -32z"/>
<path d="M835 851 c-11 -5 -31 -21 -45 -36 -22 -23 -25 -36 -25 -95 0 -79 7
-90 98 -152 59 -40 78 -67 69 -101 -14 -52 -111 -42 -158 17 -26 33 -27 33
-68 21 -46 -14 -47 -23 -10 -72 27 -36 110 -80 169 -88 86 -13 155 37 170 125
9 52 -16 103 -67 138 -81 55 -108 83 -108 111 0 36 17 51 59 51 38 0 101 -41
101 -66 0 -16 10 -14 68 7 27 10 27 13 2 54 -39 64 -190 115 -255 86z"/>
<path d="M1222 717 c-39 -22 -62 -67 -62 -120 0 -71 18 -99 103 -156 61 -42
82 -73 67 -100 -28 -53 -109 -45 -159 16 -26 31 -28 32 -64 21 -46 -14 -47
-34 -4 -78 49 -50 120 -80 194 -80 55 0 65 3 92 30 27 28 51 82 51 118 0 38
-38 87 -106 138 -63 46 -74 59 -74 84 0 20 8 34 24 45 32 21 93 1 121 -40 19
-29 22 -30 59 -20 22 7 41 16 43 21 7 21 -44 79 -91 103 -58 30 -158 39 -194
18z"/>
<path d="M3194 692 c12 -23 12 -33 2 -53 -10 -20 -19 -24 -57 -23 -48 0 -94
25 -104 57 -7 20 -29 22 -73 6 -31 -11 -31 -12 -17 -39 21 -40 67 -76 130 -99
70 -26 121 -27 163 -1 34 21 71 87 72 127 0 46 -9 53 -71 53 l-60 0 15 -28z"/>
<path d="M4472 613 c-5 -21 -37 -123 -71 -228 -33 -104 -61 -195 -61 -202 0
-13 65 -37 83 -30 7 3 24 40 37 83 13 44 26 82 30 86 3 4 22 3 42 -4 40 -12
40 -14 54 -150 4 -37 12 -72 18 -77 15 -11 86 -34 91 -29 3 2 -2 45 -10 94
-21 128 -21 127 26 148 66 29 102 112 79 181 -18 55 -67 89 -187 129 -59 20
-111 36 -114 36 -4 0 -11 -17 -17 -37z m195 -118 c12 -8 24 -23 27 -33 10 -30
-10 -71 -38 -78 -28 -7 -123 13 -132 27 -5 8 20 98 33 121 4 8 79 -17 110 -37z"/>
<path d="M1851 518 c-7 -24 -39 -126 -72 -228 -32 -101 -59 -190 -59 -196 0
-14 65 -38 84 -31 7 3 23 39 35 81 22 74 23 76 49 70 15 -4 35 -11 46 -16 33
-17 130 -13 163 7 57 33 91 120 73 184 -16 61 -63 95 -189 135 -61 20 -112 36
-114 36 -2 0 -9 -19 -16 -42z m196 -108 c1 0 9 -13 18 -29 18 -37 8 -72 -29
-97 -22 -14 -33 -14 -73 -5 -81 20 -81 16 -28 159 3 9 17 7 57 -8 29 -11 54
-20 55 -20z"/>
<path d="M4896 453 c-10 -32 -42 -134 -72 -227 -30 -93 -54 -174 -54 -181 0
-24 98 -45 206 -45 134 0 137 15 9 54 -52 16 -95 34 -95 39 0 19 34 117 40
117 4 0 40 -11 80 -25 40 -14 79 -25 86 -25 11 0 41 67 32 74 -1 2 -34 14 -73
26 -110 36 -106 32 -88 88 9 26 17 49 19 51 1 1 46 -11 99 -29 53 -18 97 -30
99 -29 7 11 26 61 26 69 0 8 -262 100 -286 100 -6 0 -18 -26 -28 -57z"/>
<path d="M2275 421 c-2 -5 -32 -96 -66 -202 -34 -107 -64 -200 -66 -207 -4 -9
10 -12 50 -12 l55 0 13 50 c14 53 24 59 72 41 18 -7 26 -19 31 -50 l6 -41 48
0 48 0 -4 33 c-3 31 -1 34 37 49 45 18 76 61 86 120 9 49 -18 104 -63 135 -40
26 -240 94 -247 84z m159 -135 c47 -19 63 -54 44 -92 -8 -18 -23 -30 -38 -33
-33 -4 -130 20 -130 32 0 6 8 35 17 64 16 51 19 54 45 49 15 -3 43 -12 62 -20z"/>
<path d="M5310 357 c-51 -18 -80 -67 -80 -135 0 -53 2 -57 49 -101 124 -116
131 -121 183 -121 46 0 49 1 43 23 -11 39 -40 71 -106 118 -52 36 -65 51 -67
76 -4 35 19 63 50 63 33 0 89 -31 101 -57 12 -26 21 -28 66 -12 37 13 38 16 8
60 -45 67 -173 112 -247 86z"/>
<path d="M2659 145 l-46 -145 153 0 c85 0 154 3 154 8 0 4 -40 19 -89 35 l-90
27 15 43 c8 23 16 47 19 54 3 9 29 4 91 -17 48 -17 93 -30 100 -30 11 0 40 67
32 75 -3 3 -282 95 -289 95 -2 0 -25 -65 -50 -145z"/>
<path d="M0 206 c0 -35 4 -46 19 -51 35 -11 71 -46 71 -69 0 -36 -28 -66 -61
-66 -16 0 -29 -5 -29 -10 0 -7 32 -10 88 -8 l87 3 9 47 c16 84 -30 146 -136
184 -22 8 -42 14 -44 14 -2 0 -4 -20 -4 -44z"/>
<path d="M5703 225 c-18 -8 -42 -29 -53 -47 -25 -41 -27 -124 -4 -156 13 -19
24 -22 90 -22 l74 0 -40 36 c-49 44 -55 88 -15 106 36 16 100 -5 122 -40 9
-15 18 -28 19 -30 3 -4 84 20 84 25 0 2 -7 17 -15 33 -20 39 -74 79 -131 96
-58 17 -90 17 -131 -1z"/>
<path d="M305 139 c-11 -32 -45 -132 -45 -136 0 -1 25 -3 55 -3 41 0 55 4 55
14 0 25 15 26 69 6 64 -25 146 -27 155 -4 14 37 5 43 -126 85 -73 23 -139 44
-145 46 -7 3 -15 -1 -18 -8z"/>
<path d="M3079 123 c-33 -20 -59 -63 -59 -97 0 -25 3 -26 50 -26 37 0 50 4 50
15 0 8 10 21 23 30 28 18 84 6 112 -25 13 -15 31 -20 67 -20 26 0 48 4 48 9 0
25 -52 79 -100 103 -65 33 -149 38 -191 11z"/>
<path d="M3515 10 c-23 -6 -14 -8 39 -9 38 0 67 1 65 3 -10 9 -77 13 -104 6z"/>
<path d="M5175 10 c-16 -7 -13 -9 18 -9 20 -1 37 4 37 9 0 12 -27 12 -55 0z"/>
</g>
</svg>
