<?xml version="1.0" encoding="utf-8"?><!DOCTYPE svg PUBLIC "-//W3C//DTD SVG 1.1//EN" "http://www.w3.org/Graphics/SVG/1.1/DTD/svg11.dtd"><svg version="1.1" xmlns="http://www.w3.org/2000/svg" xmlns:xlink="http://www.w3.org/1999/xlink" viewBox="0 0 900 750" width="900" height="750"><g class="svg-logo"><g class="base"><g class="logo-element laurel"><path d="M268.12 410.44c-10.92 6.08-16.45 14.43-14.12 26.02 1.29-5.5 4.34-10.43 8.63-14.98 -1.01 6.17-3.1 11.57-6.7 15.94C266.58 432.26 269.88 422.82 268.12 410.44zM325.94 508.93c-5.32 11.32-4.94 21.3 3.71 29.37 -2.15-5.23-2.57-11.01-1.72-17.2 2.77 5.59 4.23 11.21 3.85 16.85C337.42 527.55 334.59 517.96 325.94 508.93zM312.2 495.32c-6.46 10.71-7.12 20.69 0.65 29.6 -1.6-5.42-1.41-11.22 0.07-17.28 2.18 5.85 3.05 11.58 2.09 17.16C321.69 515.04 319.87 505.2 312.2 495.32zM289.3 464.22c-8.53 9.14-11.24 18.77-5.46 29.1 -0.45-5.63 0.93-11.27 3.63-16.9 0.93 6.18 0.59 11.97-1.5 17.23C294.52 485.46 294.76 475.47 289.3 464.22zM299.94 480.37c-7.54 9.98-9.23 19.83-2.42 29.51 -1.04-5.56-0.24-11.3 1.86-17.19 1.56 6.05 1.83 11.85 0.29 17.28C307.33 500.96 306.54 490.98 299.94 480.37zM280.39 447.06c-9.43 8.2-13.12 17.5-8.45 28.38 0.13-5.66 2.09-11.11 5.36-16.44 0.28 6.25-0.65 11.98-3.28 16.98C283.38 468.73 284.66 458.8 280.39 447.06zM273.3 429.07c-10.23 7.19-14.86 16.05-11.35 27.34 0.72-5.62 3.24-10.83 7.04-15.8 -0.37 6.24-1.89 11.83-5.02 16.54C274.03 450.93 276.33 441.2 273.3 429.07zM347.76 549.87c-2.69-4.98-3.7-10.69-3.5-16.93 3.34 5.28 5.37 10.71 5.58 16.36 4.53-10.93 0.72-20.17-8.82-28.25C336.9 532.85 338.31 542.74 347.76 549.87zM268.53 479.21c-5.65-0.14-11.11-2.1-16.43-5.36 6.24-0.28 11.96 0.65 16.97 3.27 -7.24-9.35-17.16-10.64-28.91-6.37C248.37 480.19 257.67 483.87 268.53 479.21zM264.9 391.37c-11.49 4.92-17.85 12.64-16.74 24.43 1.86-5.34 5.4-9.94 10.14-14.01 -1.65 6.03-4.29 11.19-8.32 15.16C261.11 412.92 265.37 403.86 264.9 391.37zM329.75 558.33c5.28-3.34 10.71-5.37 16.36-5.58 -10.93-4.53-20.18-0.72-28.26 8.82 11.81 4.12 21.71 2.71 28.82-6.75C341.7 557.52 335.99 558.53 329.75 558.33zM280.84 497.43c-5.64 0.46-11.27-0.94-16.9-3.63 6.18-0.92 11.97-0.59 17.23 1.5 -8.18-8.54-18.17-8.79-29.41-3.33C260.89 500.49 270.51 503.19 280.84 497.43zM258.18 459.81c-5.61-0.71-10.84-3.23-15.79-7.04 6.23 0.36 11.84 1.89 16.54 5.02 -6.23-10.05-15.96-12.36-28.09-9.32C238.03 458.7 246.89 463.32 258.18 459.81zM294.97 514.27c-5.56 1.04-11.31 0.25-17.19-1.85 6.05-1.57 11.84-1.83 17.28-0.3 -9.01-7.66-18.98-6.86-29.6-0.26C275.44 519.39 285.3 521.08 294.97 514.27zM293.48 529.49c5.86-2.19 11.59-3.05 17.16-2.08 -9.76-6.69-19.6-4.86-29.47 2.81 10.7 6.46 20.68 7.12 29.59-0.66C305.35 531.17 299.55 530.97 293.48 529.49zM310.86 544.85c5.6-2.77 11.21-4.23 16.85-3.85 -10.4-5.64-19.99-2.81-29.02 5.85 11.32 5.32 21.31 4.94 29.37-3.72C322.84 545.29 317.05 545.7 310.86 544.85zM249.9 439.45c-5.51-1.3-10.44-4.34-14.98-8.64 6.17 1.01 11.57 3.11 15.94 6.7 -5.16-10.64-14.6-13.94-26.98-12.18C229.96 436.26 238.3 441.77 249.9 439.45zM284.34 245.44c3.99-1.58 8.38-1.82 13.06-1.11 -4.27 2.04-8.55 3.08-12.82 2.72 7.82 4.39 15.13 2.36 22.07-4.09C298.13 238.8 290.55 238.97 284.34 245.44zM255.85 361.58c-2.85 5.56-6.5 10.06-11.27 13.11 11.71-1.64 17.75-9.62 19.87-21.94 -12.26 2.44-20.08 8.68-21.42 20.43C245.97 368.35 250.37 364.58 255.85 361.58zM298.92 254.7c-9.66-3.81-17.92-2.97-24.15 4.63 4.22-2.06 8.99-2.71 14.17-2.34 -4.49 2.61-9.07 4.1-13.77 4.09C284.09 265.2 291.89 262.34 298.92 254.7zM294.5 232.97c3.72-1.15 7.72-1.06 11.92-0.09 -4.02 1.55-7.97 2.19-11.82 1.57 6.78 4.54 13.55 3.21 20.3-2.16C307.48 227.91 300.59 227.54 294.5 232.97zM243.76 418.34c-5.34-1.86-9.93-5.4-14-10.14 6.03 1.65 11.19 4.29 15.15 8.32 -4.03-11.13-13.07-15.38-25.57-14.92C224.27 413.09 231.99 419.45 243.76 418.34zM305.19 221.71c3.4-0.77 6.97-0.43 10.65 0.72 -3.7 1.11-7.26 1.42-10.66 0.61 5.75 4.5 11.89 3.77 18.27-0.56C317.11 218.07 310.99 217.27 305.19 221.71zM314.85 213.75c3.86 3.44 8.22 3.19 12.93 0.42 -4.28-3.4-8.57-4.24-12.87-1.36 2.44-0.39 4.95 0.01 7.49 0.99C319.74 214.41 317.21 214.47 314.85 213.75zM291.96 267.71c-10.96-3.28-19.95-1.59-26.08 7.34 4.44-2.66 9.62-3.81 15.34-3.89 -4.69 3.27-9.57 5.35-14.73 5.77C276.66 280.62 284.96 276.76 291.96 267.71zM246.19 395.96c11.48-2.86 16.65-11.41 17.49-23.89 -11.94 3.71-19.07 10.72-19.18 22.55 2.4-5.12 6.4-9.33 11.54-12.88C253.77 387.57 250.61 392.43 246.19 395.96zM258.3 291.5c4.19-3.04 9.25-4.64 14.94-5.21 -4.38 3.67-9.07 6.17-14.17 7.04 10.46 2.78 18.39-1.79 24.57-11.41C272.43 279.6 263.62 282.07 258.3 291.5zM246.86 330.2c3.78-4.04 8.76-6.76 14.61-8.52 -3.85 4.74-8.26 8.31-13.43 10.27 11.55 0.79 18.93-5.63 23.45-17C259.26 314.83 250.52 319.22 246.86 330.2zM257.76 341.5c-3.42 5.23-7.51 9.34-12.56 11.88 11.82-0.42 18.65-7.73 22.04-19.77 -12.45 1.16-20.87 6.55-23.42 18.11C247.22 347.21 252 343.92 257.76 341.5zM252.17 309.11c4.09-3.56 9.22-5.71 15.11-6.83 -4.24 4.23-8.9 7.28-14.14 8.66 11.18 1.94 19.03-3.57 24.59-14.19C265.82 295.37 256.85 298.77 252.17 309.11zM324.63 203.14c-1.53 2.24-3.35 3.98-5.56 5.03 5.13-0.07 8.16-3.17 9.74-8.36 -5.41 0.38-9.11 2.64-10.33 7.63C320 205.51 322.1 204.13 324.63 203.14zM238.85 352.8c-4.51-3.41-7.8-8.19-10.21-13.95 5.23 3.41 9.34 7.51 11.87 12.56 -0.42-11.82-7.73-18.65-19.76-22.03C221.9 341.83 227.3 350.25 238.85 352.8zM241.92 330.75c-4.05-3.78-6.76-8.76-8.53-14.6 4.74 3.85 8.32 8.26 10.28 13.43 0.79-11.55-5.63-18.94-17-23.45C226.54 318.36 230.94 327.1 241.92 330.75zM247.29 309.13c-3.56-4.08-5.7-9.22-6.83-15.11 4.23 4.24 7.28 8.89 8.66 14.14 1.94-11.17-3.57-19.03-14.19-24.59C233.56 295.49 236.96 304.46 247.29 309.13zM253.66 291.12c-3.04-4.2-4.64-9.25-5.21-14.94 3.67 4.39 6.16 9.07 7.03 14.18 2.79-10.46-1.78-18.39-11.41-24.58C241.76 276.99 244.23 285.8 253.66 291.12zM239.86 396.7c-5.12-2.4-9.32-6.4-12.87-11.54 5.82 2.26 10.68 5.43 14.21 9.85 -2.86-11.49-11.41-16.65-23.89-17.49C221.01 389.46 228.03 396.59 239.86 396.7zM238.21 374.77c-4.84-2.92-8.61-7.33-11.61-12.8 5.56 2.85 10.07 6.5 13.11 11.26 -1.65-11.72-9.62-17.75-21.94-19.87C220.22 365.62 226.46 373.44 238.21 374.77zM279.31 230.91c2.04 4.27 3.08 8.55 2.73 12.83 4.39-7.83 2.36-15.12-4.1-22.08 -4.16 8.52-3.99 16.1 2.49 22.31C278.84 239.98 278.59 235.59 279.31 230.91zM261.3 274.26c-2.66-4.43-3.82-9.61-3.89-15.33 3.27 4.69 5.34 9.57 5.77 14.73 3.69-10.18-0.17-18.47-9.22-25.48C250.67 259.15 252.37 268.14 261.3 274.26zM302.56 209.01c1.11 3.7 1.42 7.27 0.61 10.67 4.5-5.75 3.77-11.88-0.57-18.27 -4.41 6.34-5.2 12.46-0.76 18.26C301.06 216.26 301.4 212.7 302.56 209.01zM313.07 203.09c0.62 2.66 0.68 5.19-0.05 7.55 3.44-3.85 3.19-8.22 0.42-12.93 -3.4 4.28-4.24 8.57-1.36 12.87C311.68 208.13 312.09 205.63 313.07 203.09zM290.76 219.26c1.55 4.03 2.19 7.98 1.57 11.82 4.53-6.78 3.2-13.55-2.16-20.3 -4.37 7.43-4.75 14.31 0.68 20.4C289.7 227.45 289.79 223.46 290.76 219.26zM270.59 258.21c-2.06-4.22-2.71-9-2.34-14.17 2.6 4.49 4.1 9.07 4.08 13.77 4.12-8.93 1.27-16.72-6.37-23.75C262.15 243.71 262.99 251.98 270.59 258.21zM351.79 552.59c-16.66-8.95-31.97-20.1-45.51-33.09 -64.65-62-82.45-158.1-44.44-238.43 12.87-27.19 31.63-51.6 55.37-71.25 0.66-0.55 0.37-0.97 0.35-1 -0.03-0.03-0.39-0.43-1.08 0.14 -23.86 19.76-42.73 44.31-55.66 71.63 -38.31 80.97-21.36 177.96 43.9 240.55 13.65 13.09 29.07 24.33 45.86 33.37 0.82 0.35 2.38 1.38 2.89 0.43C354.02 553.89 352.45 552.99 351.79 552.59z" fill="#000" stroke="none" stroke-width="0"></path><path d="M631.81 410.44c-1.76 12.37 1.54 21.82 12.19 26.98 -3.6-4.37-5.69-9.77-6.7-15.94 4.3 4.54 7.34 9.48 8.63 14.98C648.26 424.87 642.74 416.53 631.81 410.44zM572 521.1c0.85 6.19 0.44 11.98-1.72 17.2 8.66-8.07 9.04-18.05 3.71-29.37 -8.65 9.03-11.48 18.62-5.84 29.02C567.78 532.31 569.23 526.69 572 521.1zM587.74 495.32c-7.67 9.88-9.49 19.72-2.81 29.47 -0.96-5.57-0.1-11.31 2.09-17.15 1.48 6.07 1.67 11.86 0.06 17.28C594.86 516.01 594.2 506.03 587.74 495.32zM610.64 464.22c-5.46 11.25-5.22 21.24 3.33 29.42 -2.09-5.26-2.42-11.05-1.5-17.23 2.7 5.64 4.08 11.27 3.63 16.9C621.88 482.99 619.17 473.36 610.64 464.22zM600 480.37c-6.6 10.61-7.4 20.59 0.26 29.6 -1.53-5.43-1.27-11.23 0.29-17.28 2.1 5.89 2.9 11.63 1.86 17.19C609.23 500.2 607.54 490.35 600 480.37zM628 475.44c4.67-10.88 0.98-20.17-8.45-28.37 -4.27 11.74-2.99 21.67 6.36 28.91 -2.62-5-3.56-10.73-3.28-16.98C625.91 464.32 627.87 469.78 628 475.44zM626.63 429.07c-3.03 12.13-0.73 21.85 9.33 28.08 -3.13-4.71-4.65-10.3-5.02-16.54 3.8 4.96 6.32 10.18 7.04 15.8C641.49 445.12 636.86 436.26 626.63 429.07zM555.68 532.94c0.2 6.24-0.81 11.95-3.5 16.93 9.45-7.12 10.86-17.02 6.74-28.82 -9.54 8.09-13.35 17.33-8.82 28.26C550.31 543.64 552.33 538.22 555.68 532.94zM630.87 477.12c5.01-2.63 10.73-3.55 16.97-3.27 -5.32 3.27-10.78 5.23-16.43 5.36 10.87 4.66 20.16 0.99 28.37-8.45C648.03 466.48 638.11 467.77 630.87 477.12zM651.77 415.79c1.11-11.79-5.24-19.51-16.74-24.42 -0.47 12.49 3.79 21.55 14.92 25.57 -4.03-3.97-6.68-9.13-8.32-15.16C646.38 405.85 649.91 410.45 651.77 415.79zM553.83 552.75c5.65 0.21 11.08 2.24 16.36 5.58 -6.24 0.2-11.95-0.82-16.92-3.51 7.12 9.46 17.02 10.87 28.82 6.75C574 552.03 564.75 548.22 553.83 552.75zM618.78 495.29c5.26-2.09 11.04-2.41 17.23-1.5 -5.63 2.7-11.27 4.09-16.9 3.63 10.33 5.77 19.95 3.06 29.1-5.46C636.95 486.5 626.95 486.75 618.78 495.29zM641 457.79c4.71-3.13 10.31-4.66 16.54-5.02 -4.95 3.8-10.18 6.32-15.79 7.04 11.29 3.52 20.16-1.1 27.34-11.34C656.97 445.43 647.24 447.74 641 457.79zM604.87 512.11c5.44-1.53 11.24-1.27 17.28 0.3 -5.88 2.1-11.63 2.89-17.19 1.85 9.67 6.82 19.53 5.12 29.51-2.42C623.85 505.25 613.88 504.45 604.87 512.11zM589.29 527.41c5.57-0.96 11.31-0.1 17.16 2.09 -6.07 1.48-11.87 1.68-17.28 0.06 8.91 7.78 18.89 7.12 29.59 0.66C608.89 522.55 599.05 520.72 589.29 527.41zM572.22 541c5.64-0.38 11.26 1.08 16.85 3.85 -6.19 0.84-11.98 0.43-17.2-1.73 8.06 8.66 18.05 9.04 29.37 3.72C592.21 538.19 582.62 535.36 572.22 541zM649.08 437.51c4.36-3.59 9.77-5.68 15.94-6.7 -4.53 4.3-9.47 7.34-14.98 8.64 11.6 2.32 19.93-3.19 26.02-14.12C663.68 423.57 654.24 426.87 649.08 437.51zM615.59 245.44c-6.21-6.48-13.79-6.65-22.31-2.48 6.94 6.45 14.25 8.49 22.07 4.1 -4.28 0.36-8.55-0.69-12.82-2.72C607.21 243.62 611.61 243.87 615.59 245.44zM656.9 373.18c-1.34-11.75-9.15-17.99-21.42-20.43 2.12 12.32 8.16 20.3 19.87 21.94 -4.76-3.05-8.41-7.55-11.27-13.1C649.56 364.58 653.97 368.35 656.9 373.18zM625.16 259.33c-6.23-7.6-14.49-8.44-24.15-4.63 7.03 7.64 14.83 10.5 23.75 6.38 -4.69 0.02-9.27-1.48-13.77-4.09C616.17 256.62 620.95 257.27 625.16 259.33zM605.43 232.97c-6.09-5.43-12.97-5.05-20.4-0.68 6.75 5.37 13.52 6.7 20.3 2.16 -3.85 0.62-7.8-0.02-11.82-1.57C597.71 231.9 601.71 231.82 605.43 232.97zM655.02 416.52c3.97-4.03 9.13-6.67 15.15-8.32 -4.06 4.74-8.66 8.28-14 10.14 11.77 1.12 19.49-5.25 24.41-16.74C668.09 401.13 659.05 405.39 655.02 416.52zM594.75 221.71c-5.8-4.44-11.92-3.64-18.26 0.77 6.39 4.33 12.52 5.06 18.27 0.56 -3.39 0.82-6.96 0.51-10.66-0.61C587.78 221.28 591.35 220.94 594.75 221.71zM585.03 212.8c-4.3-2.88-8.59-2.03-12.87 1.36 4.71 2.77 9.07 3.02 12.93-0.42 -2.36 0.72-4.89 0.66-7.55 0.04C580.08 212.81 582.59 212.41 585.03 212.8zM607.98 267.71c7 9.05 15.3 12.91 25.47 9.22 -5.16-0.42-10.04-2.5-14.73-5.77 5.71 0.08 10.9 1.23 15.34 3.89C627.93 266.12 618.94 264.43 607.98 267.71zM655.44 394.62c-0.11-11.83-7.24-18.84-19.18-22.55 0.84 12.48 6.01 21.03 17.49 23.89 -4.42-3.53-7.58-8.38-9.85-14.21C649.04 385.29 653.04 389.5 655.44 394.62zM616.3 281.91c6.19 9.63 14.11 14.2 24.57 11.41 -5.1-0.87-9.79-3.37-14.17-7.04 5.69 0.57 10.75 2.18 14.94 5.22C636.32 282.07 627.51 279.6 616.3 281.91zM628.45 314.96c4.52 11.37 11.9 17.79 23.45 17 -5.17-1.96-9.58-5.53-13.43-10.27 5.85 1.76 10.83 4.48 14.61 8.52C649.42 319.22 640.68 314.83 628.45 314.96zM656.12 351.72c-2.55-11.56-10.97-16.95-23.42-18.11 3.39 12.03 10.22 19.35 22.04 19.77 -5.05-2.54-9.15-6.65-12.56-11.88C647.94 343.92 652.71 347.21 656.12 351.72zM622.21 296.74c5.56 10.62 13.41 16.13 24.59 14.19 -5.24-1.38-9.9-4.43-14.14-8.66 5.89 1.12 11.02 3.27 15.11 6.83C643.09 298.77 634.12 295.37 622.21 296.74zM580.87 208.17c-2.21-1.05-4.03-2.79-5.56-5.03 2.52 1 4.63 2.38 6.15 4.3 -1.22-4.99-4.92-7.24-10.33-7.63C572.72 204.99 575.74 208.1 580.87 208.17zM659.43 351.41c2.54-5.05 6.65-9.15 11.87-12.56 -2.41 5.76-5.71 10.53-10.21 13.95 11.55-2.55 16.95-10.97 18.11-23.42C667.16 332.77 659.85 339.59 659.43 351.41zM656.27 329.58c1.95-5.17 5.54-9.58 10.28-13.43 -1.76 5.85-4.48 10.83-8.53 14.6 10.98-3.65 15.38-12.39 15.25-24.63C661.9 310.64 655.48 318.03 656.27 329.58zM650.82 308.16c1.38-5.24 4.43-9.9 8.66-14.14 -1.12 5.88-3.27 11.02-6.83 15.11 10.33-4.67 13.73-13.64 12.36-25.55C654.38 289.13 648.88 296.99 650.82 308.16zM644.46 290.35c0.87-5.11 3.37-9.79 7.03-14.18 -0.57 5.69-2.18 10.75-5.21 14.94 9.43-5.32 11.9-14.13 9.59-25.35C646.24 271.96 641.67 279.89 644.46 290.35zM660.08 396.7c11.83-0.11 18.84-7.23 22.55-19.17 -12.48 0.83-21.03 6-23.89 17.49 3.53-4.42 8.39-7.59 14.21-9.85C669.4 390.3 665.2 394.29 660.08 396.7zM660.22 373.23c3.05-4.76 7.56-8.41 13.11-11.26 -3 5.48-6.77 9.89-11.61 12.81 11.75-1.34 17.99-9.15 20.44-21.41C669.84 355.48 661.87 361.52 660.22 373.23zM620.63 230.91c0.71 4.68 0.47 9.07-1.11 13.06 6.48-6.21 6.65-13.79 2.49-22.31 -6.46 6.95-8.5 14.25-4.1 22.08C617.55 239.46 618.59 235.18 620.63 230.91zM636.76 273.66c0.42-5.16 2.5-10.04 5.77-14.73 -0.07 5.71-1.23 10.89-3.89 15.33 8.93-6.12 10.62-15.11 7.34-26.08C636.93 255.19 633.07 263.48 636.76 273.66zM597.38 209.01c1.15 3.69 1.5 7.25 0.72 10.66 4.44-5.8 3.65-11.92-0.76-18.26 -4.34 6.39-5.07 12.52-0.57 18.27C595.96 216.28 596.27 212.7 597.38 209.01zM586.87 203.09c0.98 2.54 1.39 5.05 0.99 7.49 2.88-4.3 2.04-8.59-1.36-12.87 -2.77 4.71-3.02 9.07 0.42 12.93C586.19 208.28 586.25 205.74 586.87 203.09zM609.17 219.26c0.97 4.2 1.06 8.19-0.09 11.92 5.43-6.09 5.05-12.97 0.68-20.4 -5.36 6.75-6.7 13.51-2.16 20.3C606.98 227.23 607.62 223.28 609.17 219.26zM631.69 244.04c0.37 5.17-0.27 9.95-2.34 14.17 7.6-6.23 8.44-14.49 4.63-24.15 -7.65 7.03-10.5 14.83-6.37 23.75C627.59 253.11 629.09 248.53 631.69 244.04zM639.12 280.59c-12.93-27.32-31.8-51.87-55.66-71.63 -0.68-0.57-1.05-0.17-1.08-0.13 -0.02 0.03-0.31 0.45 0.35 1 23.73 19.66 42.5 44.07 55.37 71.26 38.01 80.32 20.2 176.43-44.44 238.43 -13.54 12.99-28.85 24.13-45.51 33.09 -0.66 0.4-2.23 1.3-1.66 2.35 0.51 0.95 2.06-0.08 2.89-0.43 16.78-9.04 32.21-20.28 45.86-33.37C660.48 458.55 677.44 361.56 639.12 280.59z" fill="#000" stroke="none" stroke-width="0"></path></g></g><g class="swag"><g class="logo-element base-addon-laurel-bottom-laurel"><path d="M538.207,543.015c-0.446,6.23-2.043,11.803-5.233,16.478c10.136-6.105,12.566-15.804,9.694-27.975         c-10.325,7.056-15.072,15.854-11.702,27.188C531.759,553.115,534.342,547.915,538.207,543.015z"></path><path d="M519.792,551.228c-1.094,6.153-3.257,11.531-6.916,15.845c10.715-5.022,14.138-14.415,12.54-26.815         c-10.999,5.949-16.633,14.204-14.46,25.829C512.326,560.604,515.434,555.711,519.792,551.228z"></path><path d="M500.617,557.49c-1.724,6.002-4.432,11.133-8.518,15.048c11.18-3.88,15.557-12.876,15.255-25.38         c-11.562,4.776-18.017,12.411-17.059,24.205C492.222,566.035,495.823,561.489,500.617,557.49z"></path><path d="M464.75,562.401c-2.492,4.707-5.653,8.501-9.745,11.056c10.001-1.277,15.23-8.001,17.175-18.477         c-10.477,1.949-17.205,7.173-18.477,17.175C456.249,568.061,460.048,564.894,464.75,562.401z"></path><path d="M480.902,561.73c-2.34,5.794-5.566,10.622-10.034,14.075c11.519-2.697,16.801-11.184,17.8-23.65         c-11.991,3.549-19.204,10.468-19.476,22.29C471.665,569.362,475.715,565.21,480.902,561.73z"></path><path d="M449.844,563.967c1.179,3.856,1.523,7.575,0.694,11.122c4.671-6.024,3.867-12.424-0.694-19.061         c-4.56,6.637-5.362,13.036-0.694,19.053C448.321,571.542,448.661,567.824,449.844,563.967z"></path><path d="M444.93,573.457c-4.093-2.554-7.26-6.349-9.749-11.056c4.704,2.493,8.507,5.66,11.043,9.754         c-1.269-10.002-7.996-15.226-18.471-17.175C429.697,565.456,434.926,572.179,444.93,573.457z"></path><path d="M387.001,567.073c-3.657-4.313-5.821-9.691-6.915-15.845c4.356,4.483,7.463,9.376,8.832,14.858         c2.176-11.625-3.457-19.879-14.458-25.829C372.864,552.658,376.286,562.051,387.001,567.073z"></path><path d="M407.779,572.538c-4.086-3.915-6.8-9.046-8.521-15.048c4.795,3.999,8.395,8.545,10.324,13.873         c0.958-11.794-5.5-19.429-17.056-24.205C392.223,559.661,396.6,568.658,407.779,572.538z"></path><path d="M429.006,575.805c-4.467-3.454-7.692-8.281-10.033-14.075c5.186,3.48,9.24,7.632,11.707,12.714         c-0.269-11.822-7.481-18.741-19.471-22.29C412.204,564.622,417.488,573.108,429.006,575.805z"></path><path d="M366.904,559.493c-3.191-4.675-4.787-10.248-5.237-16.478c3.87,4.899,6.453,10.1,7.245,15.69         c3.369-11.334-1.376-20.132-11.701-27.188C354.338,543.689,356.768,553.388,366.904,559.493z"></path><path d="M547.888,552.729c-23.73,12.723-50.2,21-78.296,23.698c-6.008-3.542-11.802-3.84-17.3,0.417         c2.973-0.695,6.068-0.554,9.259,0.194c0.337,0.76-0.747,1.168-0.747,1.168c-2.928,0.604-5.774,0.664-8.513,0.024         c5.473,4.239,11.242,3.958,17.225,0.469c28.845-2.723,56.003-11.264,80.291-24.427         C549.154,553.775,548.52,553.253,547.888,552.729z"></path><path d="M371.121,579.073c4.475-4.356,9.372-7.471,14.86-8.832c-11.629-2.18-19.886,3.453-25.831,14.45         c12.403,1.599,21.795-1.82,26.814-12.536C382.651,575.815,377.271,577.985,371.121,579.073z"></path><path d="M393.225,586.111c4.003-4.801,8.551-8.391,13.866-10.321c-11.79-0.962-19.424,5.496-24.193,17.052         c12.501,0.299,21.488-4.075,25.372-15.25C404.359,581.677,399.228,584.385,393.225,586.111z"></path><path d="M415.943,590.817c3.482-5.184,7.633-9.234,12.714-11.703c-11.82,0.273-18.742,7.492-22.291,19.471         c12.464-0.992,20.957-6.271,23.653-17.794C426.551,585.257,421.734,588.486,415.943,590.817z"></path><path d="M435.181,592.434c2.489-4.715,5.656-8.511,9.749-11.056c-10.003,1.27-15.232,8.001-17.177,18.476         c10.475-1.938,17.202-7.173,18.471-17.173C443.688,586.775,439.884,589.932,435.181,592.434z"></path><path d="M450.083,590.861c-1.179-3.839-1.521-7.567-0.693-11.116c-4.664,6.036-3.865,12.424,0.693,19.063         c4.565-6.639,5.365-13.027,0.693-19.063C451.605,583.294,451.267,587.022,450.083,590.861z"></path><path d="M455.005,581.378c4.091,2.545,7.252,6.341,9.745,11.056c-4.702-2.502-8.501-5.659-11.046-9.753         c1.271,10,8,15.234,18.477,17.173C470.235,589.379,465.006,582.648,455.005,581.378z"></path><path d="M492.785,575.79c5.314,1.931,9.867,5.52,13.865,10.321c-5.998-1.726-11.134-4.434-15.042-8.52         c3.882,11.175,12.873,15.549,25.369,15.25C512.213,581.286,504.574,574.828,492.785,575.79z"></path><path d="M513.894,570.241c5.485,1.361,10.385,4.476,14.863,8.832c-6.154-1.088-11.531-3.258-15.848-6.918         c5.018,10.716,14.413,14.135,26.818,12.536C533.783,573.694,525.523,568.061,513.894,570.241z"></path><path d="M471.212,579.114c5.086,2.469,9.24,6.52,12.72,11.703c-5.794-2.331-10.612-5.56-14.078-10.026         c2.7,11.523,11.188,16.802,23.651,17.794C489.962,586.606,483.043,579.387,471.212,579.114z"></path><path d="M534.318,562.529c5.596,0.801,10.792,3.38,15.694,7.252c-6.231-0.46-11.806-2.051-16.476-5.236         c6.1,10.127,15.803,12.561,27.969,9.686C554.455,563.917,545.657,559.167,534.318,562.529z"></path><path d="M366.341,564.545c-4.671,3.185-10.247,4.776-16.477,5.236c4.903-3.872,10.097-6.451,15.695-7.252         c-11.34-3.362-20.138,1.388-27.188,11.702C350.539,577.106,360.24,574.672,366.341,564.545z"></path><path d="M439.087,577.949c0,0-1.418-0.485-1.477-0.96c3.455-0.919,6.814-1.142,10.025-0.383         c-5.604-4.342-11.523-3.95-17.663-0.214c-27.861-2.712-54.125-10.904-77.691-23.488c-0.383,0.647-0.758,1.299-1.125,1.956         c24.165,12.912,51.137,21.257,79.756,23.881c5.805,3.226,11.403,3.361,16.723-0.748         C444.879,578.63,442.022,578.564,439.087,577.949z"></path></g><g class="logo-element icon-small-coffee-cup"><path fill-rule="evenodd" clip-rule="evenodd" d="M461.397,395.796c-3.985,14.037-7.02,16.894-20.091,18.421   c-20.176,2.358-9.142,6.127-3.976,5.122c7.619-1.484,30.262-6.66,18.205,10.243c-1.02-12.769-10.065-8.078-19.511-6.13   c-11.868,2.444-30.475-9.456,4.16-11.835C450.963,410.881,455.638,407.48,461.397,395.796z"></path><path fill-rule="evenodd" clip-rule="evenodd" d="M388.178,490.482c2.538,5.996,11.867,5.203,20.488,5.121h71.731   c9.577,0,17.947,0.875,20.489-5.121H388.178z"></path><path fill-rule="evenodd" clip-rule="evenodd" d="M393.309,432.999c34.528,0,69.057,0,103.584,0   c0.103,25.011-8.455,47.304-29.595,53.501c-11.503,3.37-36.982,3.435-48.378-1.14c-18.187-7.301-25.266-26.688-26.748-50.659   C392.146,433.733,392.593,433.232,393.309,432.999z"></path><path fill-rule="evenodd" clip-rule="evenodd" d="M511.388,444.951c-1.17-4.745-6.281-6.964-11.952-8.392   c-0.074,2.467-0.233,4.905-0.488,7.296c9.682,0.74,10.325,10.089-3.208,15.432c-1.026,3.125-2.282,6.071-3.768,8.811   C500.424,464.901,514.472,457.453,511.388,444.951z"></path></g></g><g class="text"><g transform="translate(450,399)" text-anchor="middle" class="logo-element single-line"><path d="M5.69-47.19C5.77-48.67 6.94-49.53 8.19-49.53C9.05-49.53 9.91-49.14 10.53-48.20L24.26-23.17L24.02 0L29.17 0L29.17-23.32L45.86-53.43L40.40-53.43L26.60-28.55L14.59-50.39C12.95-53.12 10.61-54.13 8.42-54.13C5.07-54.13 1.48-51.87 1.09-47.66ZM87.05-4.76C86.50-3.90 85.64-3.51 84.79-3.51C83.46-3.51 82.06-4.52 82.06-6.24L82.06-38.92L77.77-38.92C74.96-39.31 70.75-39.62 68.41-39.62C56.47-39.62 49.37-31.20 49.37-19.19C49.37-8.58 54.91 0.78 66.07 0.78C71.06 0.78 75.35-1.09 77.84-5.30C78.31-1.87 81.28 0.78 84.86 0.78C86.89 0.78 89.15-0.08 90.56-2.34ZM77.77-14.66C77.77-12.71 77.38-11.08 76.67-9.67C74.88-6.01 71.06-3.28 66.14-3.28C57.72-3.28 53.82-11.23 53.82-19.34C53.82-28.39 58.66-35.57 67.94-35.57C70.67-35.57 75.35-34.94 77.77-34.94ZM102.34-38.84L102.34-48.67L98.05-48.67L98.05-11.15C98.05-3.98 100.62 0.78 107.80 0.78C112.71 0.78 116.06-1.48 118.40-5.54L115.21-7.88C113.57-4.76 110.84-3.28 107.80-3.28C103.35-3.28 102.34-6.32 102.34-11.15L102.34-34.55L114.66-34.55L114.66-38.84ZM161.77-4.76C161.23-3.90 160.37-3.51 159.51-3.51C158.18-3.51 156.78-4.52 156.78-6.24L156.78-38.92L152.49-38.92C149.68-39.31 145.47-39.62 143.13-39.62C131.20-39.62 124.10-31.20 124.10-19.19C124.10-8.58 129.64 0.78 140.79 0.78C145.78 0.78 150.07-1.09 152.57-5.30C153.04-1.87 156 0.78 159.59 0.78C161.62 0.78 163.88-0.08 165.28-2.34ZM152.49-14.66C152.49-12.71 152.10-11.08 151.40-9.67C149.60-6.01 145.78-3.28 140.87-3.28C132.44-3.28 128.54-11.23 128.54-19.34C128.54-28.39 133.38-35.57 142.66-35.57C145.39-35.57 150.07-34.94 152.49-34.94ZM169.88-36.82C171.99-34.71 173.00-31.67 173.00-27.53L173.00 0L177.29 0L177.29-27.85C178.62-30.26 180.49-32.37 181.82-33.46C183.53-34.87 185.48-35.49 188.45-35.49C189.46-35.49 190.71-35.41 192.82-34.94L192.82-39C189.93-39.55 189.31-39.62 188.29-39.62C185.87-39.62 183.53-39.16 181.58-37.91C179.87-36.82 178.15-34.87 176.83-32.53C176.20-35.41 174.95-37.60 172.54-39.39ZM233.30-4.76C232.75-3.90 231.89-3.51 231.04-3.51C229.71-3.51 228.31-4.52 228.31-6.24L228.31-38.92L224.02-38.92C221.21-39.31 217.00-39.62 214.66-39.62C202.72-39.62 195.62-31.20 195.62-19.19C195.62-8.58 201.16 0.78 212.32 0.78C217.31 0.78 221.60-1.09 224.09-5.30C224.56-1.87 227.53 0.78 231.11 0.78C233.14 0.78 235.40-0.08 236.81-2.34ZM224.02-14.66C224.02-12.71 223.63-11.08 222.92-9.67C221.13-6.01 217.31-3.28 212.39-3.28C203.97-3.28 200.07-11.23 200.07-19.34C200.07-28.39 204.91-35.57 214.19-35.57C216.92-35.57 221.60-34.94 224.02-34.94ZM241.96-36.82C244.06-34.71 245.08-31.67 245.08-27.53L245.08 0L249.37 0L249.37-27.92C251.08-32.14 255.61-35.57 260.75-35.57C265.98-35.57 268.48-32.06 268.48-26.21L268.48 0L272.77 0L272.77-27.85C275.65-33.31 279.47-35.57 284.15-35.57C289.07-35.57 291.64-33.07 291.95-27.30L291.95-6.16C291.95-2.42 294.76 0.86 298.97 0.86C301.47 0.86 303.34-0.23 304.75-2.26L301.24-4.60C300.61-3.82 299.83-3.43 299.05-3.43C297.73-3.43 296.24-4.45 296.24-6.16L296.24-27.38C296.24-34.79 291.56-39.62 284.23-39.62C278.93-39.62 274.79-37.05 271.91-32.37C270.11-37.21 266.37-39.62 261.14-39.62C255.76-39.62 251.47-37.05 248.82-32.53C248.20-35.41 247.03-37.60 244.61-39.39ZM346.71-4.76C346.16-3.90 345.31-3.51 344.45-3.51C343.12-3.51 341.72-4.52 341.72-6.24L341.72-38.92L337.43-38.92C334.62-39.31 330.41-39.62 328.07-39.62C316.13-39.62 309.04-31.20 309.04-19.19C309.04-8.58 314.57 0.78 325.73 0.78C330.72 0.78 335.01-1.09 337.51-5.30C337.97-1.87 340.94 0.78 344.53 0.78C346.55 0.78 348.82-0.08 350.22-2.34ZM337.43-14.66C337.43-12.71 337.04-11.08 336.34-9.67C334.54-6.01 330.72-3.28 325.81-3.28C317.38-3.28 313.48-11.23 313.48-19.34C313.48-28.39 318.32-35.57 327.60-35.57C330.33-35.57 335.01-34.94 337.43-34.94Z" fill="#000" transform="translate(-179,0)"></path></g></g></g></svg>